%TF.GenerationSoftware,KiCad,Pcbnew,(5.1.6-0-10_14)*%
%TF.CreationDate,2021-10-24T22:13:31-07:00*%
%TF.ProjectId,Motor_Tester_DRV8830_Wing,4d6f746f-725f-4546-9573-7465725f4452,v01*%
%TF.SameCoordinates,Original*%
%TF.FileFunction,Soldermask,Bot*%
%TF.FilePolarity,Negative*%
%FSLAX46Y46*%
G04 Gerber Fmt 4.6, Leading zero omitted, Abs format (unit mm)*
G04 Created by KiCad (PCBNEW (5.1.6-0-10_14)) date 2021-10-24 22:13:31*
%MOMM*%
%LPD*%
G01*
G04 APERTURE LIST*
%ADD10C,0.100000*%
%ADD11R,1.101600X1.601600*%
%ADD12C,1.801600*%
%ADD13C,2.601600*%
%ADD14C,3.101600*%
%ADD15R,2.501600X2.501600*%
%ADD16C,2.501600*%
G04 APERTURE END LIST*
D10*
%TO.C,JP3*%
G36*
X145100000Y-86800000D02*
G01*
X145100000Y-87500000D01*
X145500000Y-87900000D01*
X148300000Y-87900000D01*
X148700000Y-87500000D01*
X148700000Y-86800000D01*
X148300000Y-86400000D01*
X145500000Y-86400000D01*
X145100000Y-86800000D01*
G37*
X145100000Y-86800000D02*
X145100000Y-87500000D01*
X145500000Y-87900000D01*
X148300000Y-87900000D01*
X148700000Y-87500000D01*
X148700000Y-86800000D01*
X148300000Y-86400000D01*
X145500000Y-86400000D01*
X145100000Y-86800000D01*
%TO.C,JP4*%
G36*
X145100000Y-89600000D02*
G01*
X145100000Y-90300000D01*
X145500000Y-90700000D01*
X148300000Y-90700000D01*
X148700000Y-90300000D01*
X148700000Y-89600000D01*
X148300000Y-89200000D01*
X145500000Y-89200000D01*
X145100000Y-89600000D01*
G37*
X145100000Y-89600000D02*
X145100000Y-90300000D01*
X145500000Y-90700000D01*
X148300000Y-90700000D01*
X148700000Y-90300000D01*
X148700000Y-89600000D01*
X148300000Y-89200000D01*
X145500000Y-89200000D01*
X145100000Y-89600000D01*
%TO.C,JP1*%
G36*
X152900000Y-92850000D02*
G01*
X152900000Y-95350000D01*
X154400000Y-95350000D01*
X154400000Y-92850000D01*
X152900000Y-92850000D01*
G37*
X152900000Y-92850000D02*
X152900000Y-95350000D01*
X154400000Y-95350000D01*
X154400000Y-92850000D01*
X152900000Y-92850000D01*
%TO.C,JP2*%
G36*
X155450000Y-92850000D02*
G01*
X155450000Y-95350000D01*
X156950000Y-95350000D01*
X156950000Y-92850000D01*
X155450000Y-92850000D01*
G37*
X155450000Y-92850000D02*
X155450000Y-95350000D01*
X156950000Y-95350000D01*
X156950000Y-92850000D01*
X155450000Y-92850000D01*
%TD*%
D11*
%TO.C,JP3*%
X146900000Y-87150000D03*
D10*
G36*
X145593887Y-87950198D02*
G01*
X145575466Y-87950198D01*
X145570486Y-87949953D01*
X145521655Y-87945143D01*
X145516725Y-87944412D01*
X145468600Y-87934840D01*
X145463763Y-87933628D01*
X145416808Y-87919384D01*
X145412115Y-87917705D01*
X145366782Y-87898928D01*
X145362274Y-87896796D01*
X145319001Y-87873665D01*
X145314727Y-87871103D01*
X145273928Y-87843843D01*
X145269923Y-87840873D01*
X145231994Y-87809745D01*
X145228300Y-87806397D01*
X145193603Y-87771700D01*
X145190255Y-87768006D01*
X145159127Y-87730077D01*
X145156157Y-87726072D01*
X145128897Y-87685273D01*
X145126335Y-87680999D01*
X145103204Y-87637726D01*
X145101072Y-87633218D01*
X145082295Y-87587885D01*
X145080616Y-87583192D01*
X145066372Y-87536237D01*
X145065160Y-87531400D01*
X145055588Y-87483275D01*
X145054857Y-87478345D01*
X145050047Y-87429514D01*
X145049802Y-87424534D01*
X145049802Y-87406113D01*
X145049200Y-87400000D01*
X145049200Y-86900000D01*
X145049802Y-86893887D01*
X145049802Y-86875466D01*
X145050047Y-86870486D01*
X145054857Y-86821655D01*
X145055588Y-86816725D01*
X145065160Y-86768600D01*
X145066372Y-86763763D01*
X145080616Y-86716808D01*
X145082295Y-86712115D01*
X145101072Y-86666782D01*
X145103204Y-86662274D01*
X145126335Y-86619001D01*
X145128897Y-86614727D01*
X145156157Y-86573928D01*
X145159127Y-86569923D01*
X145190255Y-86531994D01*
X145193603Y-86528300D01*
X145228300Y-86493603D01*
X145231994Y-86490255D01*
X145269923Y-86459127D01*
X145273928Y-86456157D01*
X145314727Y-86428897D01*
X145319001Y-86426335D01*
X145362274Y-86403204D01*
X145366782Y-86401072D01*
X145412115Y-86382295D01*
X145416808Y-86380616D01*
X145463763Y-86366372D01*
X145468600Y-86365160D01*
X145516725Y-86355588D01*
X145521655Y-86354857D01*
X145570486Y-86350047D01*
X145575466Y-86349802D01*
X145593887Y-86349802D01*
X145600000Y-86349200D01*
X146150000Y-86349200D01*
X146159911Y-86350176D01*
X146169440Y-86353067D01*
X146178223Y-86357761D01*
X146185921Y-86364079D01*
X146192239Y-86371777D01*
X146196933Y-86380560D01*
X146199824Y-86390089D01*
X146200800Y-86400000D01*
X146200800Y-87900000D01*
X146199824Y-87909911D01*
X146196933Y-87919440D01*
X146192239Y-87928223D01*
X146185921Y-87935921D01*
X146178223Y-87942239D01*
X146169440Y-87946933D01*
X146159911Y-87949824D01*
X146150000Y-87950800D01*
X145600000Y-87950800D01*
X145593887Y-87950198D01*
G37*
G36*
X147640089Y-87949824D02*
G01*
X147630560Y-87946933D01*
X147621777Y-87942239D01*
X147614079Y-87935921D01*
X147607761Y-87928223D01*
X147603067Y-87919440D01*
X147600176Y-87909911D01*
X147599200Y-87900000D01*
X147599200Y-86400000D01*
X147600176Y-86390089D01*
X147603067Y-86380560D01*
X147607761Y-86371777D01*
X147614079Y-86364079D01*
X147621777Y-86357761D01*
X147630560Y-86353067D01*
X147640089Y-86350176D01*
X147650000Y-86349200D01*
X148200000Y-86349200D01*
X148206113Y-86349802D01*
X148224534Y-86349802D01*
X148229514Y-86350047D01*
X148278345Y-86354857D01*
X148283275Y-86355588D01*
X148331400Y-86365160D01*
X148336237Y-86366372D01*
X148383192Y-86380616D01*
X148387885Y-86382295D01*
X148433218Y-86401072D01*
X148437726Y-86403204D01*
X148480999Y-86426335D01*
X148485273Y-86428897D01*
X148526072Y-86456157D01*
X148530077Y-86459127D01*
X148568006Y-86490255D01*
X148571700Y-86493603D01*
X148606397Y-86528300D01*
X148609745Y-86531994D01*
X148640873Y-86569923D01*
X148643843Y-86573928D01*
X148671103Y-86614727D01*
X148673665Y-86619001D01*
X148696796Y-86662274D01*
X148698928Y-86666782D01*
X148717705Y-86712115D01*
X148719384Y-86716808D01*
X148733628Y-86763763D01*
X148734840Y-86768600D01*
X148744412Y-86816725D01*
X148745143Y-86821655D01*
X148749953Y-86870486D01*
X148750198Y-86875466D01*
X148750198Y-86893887D01*
X148750800Y-86900000D01*
X148750800Y-87400000D01*
X148750198Y-87406113D01*
X148750198Y-87424534D01*
X148749953Y-87429514D01*
X148745143Y-87478345D01*
X148744412Y-87483275D01*
X148734840Y-87531400D01*
X148733628Y-87536237D01*
X148719384Y-87583192D01*
X148717705Y-87587885D01*
X148698928Y-87633218D01*
X148696796Y-87637726D01*
X148673665Y-87680999D01*
X148671103Y-87685273D01*
X148643843Y-87726072D01*
X148640873Y-87730077D01*
X148609745Y-87768006D01*
X148606397Y-87771700D01*
X148571700Y-87806397D01*
X148568006Y-87809745D01*
X148530077Y-87840873D01*
X148526072Y-87843843D01*
X148485273Y-87871103D01*
X148480999Y-87873665D01*
X148437726Y-87896796D01*
X148433218Y-87898928D01*
X148387885Y-87917705D01*
X148383192Y-87919384D01*
X148336237Y-87933628D01*
X148331400Y-87934840D01*
X148283275Y-87944412D01*
X148278345Y-87945143D01*
X148229514Y-87949953D01*
X148224534Y-87950198D01*
X148206113Y-87950198D01*
X148200000Y-87950800D01*
X147650000Y-87950800D01*
X147640089Y-87949824D01*
G37*
%TD*%
D11*
%TO.C,JP4*%
X146900000Y-89950000D03*
D10*
G36*
X145593887Y-90750198D02*
G01*
X145575466Y-90750198D01*
X145570486Y-90749953D01*
X145521655Y-90745143D01*
X145516725Y-90744412D01*
X145468600Y-90734840D01*
X145463763Y-90733628D01*
X145416808Y-90719384D01*
X145412115Y-90717705D01*
X145366782Y-90698928D01*
X145362274Y-90696796D01*
X145319001Y-90673665D01*
X145314727Y-90671103D01*
X145273928Y-90643843D01*
X145269923Y-90640873D01*
X145231994Y-90609745D01*
X145228300Y-90606397D01*
X145193603Y-90571700D01*
X145190255Y-90568006D01*
X145159127Y-90530077D01*
X145156157Y-90526072D01*
X145128897Y-90485273D01*
X145126335Y-90480999D01*
X145103204Y-90437726D01*
X145101072Y-90433218D01*
X145082295Y-90387885D01*
X145080616Y-90383192D01*
X145066372Y-90336237D01*
X145065160Y-90331400D01*
X145055588Y-90283275D01*
X145054857Y-90278345D01*
X145050047Y-90229514D01*
X145049802Y-90224534D01*
X145049802Y-90206113D01*
X145049200Y-90200000D01*
X145049200Y-89700000D01*
X145049802Y-89693887D01*
X145049802Y-89675466D01*
X145050047Y-89670486D01*
X145054857Y-89621655D01*
X145055588Y-89616725D01*
X145065160Y-89568600D01*
X145066372Y-89563763D01*
X145080616Y-89516808D01*
X145082295Y-89512115D01*
X145101072Y-89466782D01*
X145103204Y-89462274D01*
X145126335Y-89419001D01*
X145128897Y-89414727D01*
X145156157Y-89373928D01*
X145159127Y-89369923D01*
X145190255Y-89331994D01*
X145193603Y-89328300D01*
X145228300Y-89293603D01*
X145231994Y-89290255D01*
X145269923Y-89259127D01*
X145273928Y-89256157D01*
X145314727Y-89228897D01*
X145319001Y-89226335D01*
X145362274Y-89203204D01*
X145366782Y-89201072D01*
X145412115Y-89182295D01*
X145416808Y-89180616D01*
X145463763Y-89166372D01*
X145468600Y-89165160D01*
X145516725Y-89155588D01*
X145521655Y-89154857D01*
X145570486Y-89150047D01*
X145575466Y-89149802D01*
X145593887Y-89149802D01*
X145600000Y-89149200D01*
X146150000Y-89149200D01*
X146159911Y-89150176D01*
X146169440Y-89153067D01*
X146178223Y-89157761D01*
X146185921Y-89164079D01*
X146192239Y-89171777D01*
X146196933Y-89180560D01*
X146199824Y-89190089D01*
X146200800Y-89200000D01*
X146200800Y-90700000D01*
X146199824Y-90709911D01*
X146196933Y-90719440D01*
X146192239Y-90728223D01*
X146185921Y-90735921D01*
X146178223Y-90742239D01*
X146169440Y-90746933D01*
X146159911Y-90749824D01*
X146150000Y-90750800D01*
X145600000Y-90750800D01*
X145593887Y-90750198D01*
G37*
G36*
X147640089Y-90749824D02*
G01*
X147630560Y-90746933D01*
X147621777Y-90742239D01*
X147614079Y-90735921D01*
X147607761Y-90728223D01*
X147603067Y-90719440D01*
X147600176Y-90709911D01*
X147599200Y-90700000D01*
X147599200Y-89200000D01*
X147600176Y-89190089D01*
X147603067Y-89180560D01*
X147607761Y-89171777D01*
X147614079Y-89164079D01*
X147621777Y-89157761D01*
X147630560Y-89153067D01*
X147640089Y-89150176D01*
X147650000Y-89149200D01*
X148200000Y-89149200D01*
X148206113Y-89149802D01*
X148224534Y-89149802D01*
X148229514Y-89150047D01*
X148278345Y-89154857D01*
X148283275Y-89155588D01*
X148331400Y-89165160D01*
X148336237Y-89166372D01*
X148383192Y-89180616D01*
X148387885Y-89182295D01*
X148433218Y-89201072D01*
X148437726Y-89203204D01*
X148480999Y-89226335D01*
X148485273Y-89228897D01*
X148526072Y-89256157D01*
X148530077Y-89259127D01*
X148568006Y-89290255D01*
X148571700Y-89293603D01*
X148606397Y-89328300D01*
X148609745Y-89331994D01*
X148640873Y-89369923D01*
X148643843Y-89373928D01*
X148671103Y-89414727D01*
X148673665Y-89419001D01*
X148696796Y-89462274D01*
X148698928Y-89466782D01*
X148717705Y-89512115D01*
X148719384Y-89516808D01*
X148733628Y-89563763D01*
X148734840Y-89568600D01*
X148744412Y-89616725D01*
X148745143Y-89621655D01*
X148749953Y-89670486D01*
X148750198Y-89675466D01*
X148750198Y-89693887D01*
X148750800Y-89700000D01*
X148750800Y-90200000D01*
X148750198Y-90206113D01*
X148750198Y-90224534D01*
X148749953Y-90229514D01*
X148745143Y-90278345D01*
X148744412Y-90283275D01*
X148734840Y-90331400D01*
X148733628Y-90336237D01*
X148719384Y-90383192D01*
X148717705Y-90387885D01*
X148698928Y-90433218D01*
X148696796Y-90437726D01*
X148673665Y-90480999D01*
X148671103Y-90485273D01*
X148643843Y-90526072D01*
X148640873Y-90530077D01*
X148609745Y-90568006D01*
X148606397Y-90571700D01*
X148571700Y-90606397D01*
X148568006Y-90609745D01*
X148530077Y-90640873D01*
X148526072Y-90643843D01*
X148485273Y-90671103D01*
X148480999Y-90673665D01*
X148437726Y-90696796D01*
X148433218Y-90698928D01*
X148387885Y-90717705D01*
X148383192Y-90719384D01*
X148336237Y-90733628D01*
X148331400Y-90734840D01*
X148283275Y-90744412D01*
X148278345Y-90745143D01*
X148229514Y-90749953D01*
X148224534Y-90750198D01*
X148206113Y-90750198D01*
X148200000Y-90750800D01*
X147650000Y-90750800D01*
X147640089Y-90749824D01*
G37*
%TD*%
%TO.C,JP1*%
G36*
X152850176Y-94315089D02*
G01*
X152853067Y-94305560D01*
X152857761Y-94296777D01*
X152864079Y-94289079D01*
X152871821Y-94282732D01*
X153621821Y-93782732D01*
X153630609Y-93778047D01*
X153640142Y-93775166D01*
X153650053Y-93774200D01*
X153659963Y-93775187D01*
X153669489Y-93778087D01*
X153678179Y-93782732D01*
X154428179Y-94282732D01*
X154435883Y-94289041D01*
X154442209Y-94296733D01*
X154446913Y-94305511D01*
X154449813Y-94315037D01*
X154450800Y-94325000D01*
X154450800Y-95325000D01*
X154449824Y-95334911D01*
X154446933Y-95344440D01*
X154442239Y-95353223D01*
X154435921Y-95360921D01*
X154428223Y-95367239D01*
X154419440Y-95371933D01*
X154409911Y-95374824D01*
X154400000Y-95375800D01*
X152900000Y-95375800D01*
X152890089Y-95374824D01*
X152880560Y-95371933D01*
X152871777Y-95367239D01*
X152864079Y-95360921D01*
X152857761Y-95353223D01*
X152853067Y-95344440D01*
X152850176Y-95334911D01*
X152849200Y-95325000D01*
X152849200Y-94325000D01*
X152850176Y-94315089D01*
G37*
G36*
X152850176Y-92865089D02*
G01*
X152853067Y-92855560D01*
X152857761Y-92846777D01*
X152864079Y-92839079D01*
X152871777Y-92832761D01*
X152880560Y-92828067D01*
X152890089Y-92825176D01*
X152900000Y-92824200D01*
X154400000Y-92824200D01*
X154409911Y-92825176D01*
X154419440Y-92828067D01*
X154428223Y-92832761D01*
X154435921Y-92839079D01*
X154442239Y-92846777D01*
X154446933Y-92855560D01*
X154449824Y-92865089D01*
X154450800Y-92875000D01*
X154450800Y-94025000D01*
X154449824Y-94034911D01*
X154446933Y-94044440D01*
X154442239Y-94053223D01*
X154435921Y-94060921D01*
X154428223Y-94067239D01*
X154419440Y-94071933D01*
X154409911Y-94074824D01*
X154400000Y-94075800D01*
X154390089Y-94074824D01*
X154380560Y-94071933D01*
X154371821Y-94067268D01*
X153650000Y-93586054D01*
X152928179Y-94067268D01*
X152919391Y-94071953D01*
X152909858Y-94074834D01*
X152899947Y-94075800D01*
X152890037Y-94074813D01*
X152880511Y-94071913D01*
X152871733Y-94067209D01*
X152864041Y-94060883D01*
X152857732Y-94053179D01*
X152853047Y-94044391D01*
X152850166Y-94034858D01*
X152849200Y-94025000D01*
X152849200Y-92875000D01*
X152850176Y-92865089D01*
G37*
%TD*%
%TO.C,JP2*%
G36*
X155400176Y-94315089D02*
G01*
X155403067Y-94305560D01*
X155407761Y-94296777D01*
X155414079Y-94289079D01*
X155421821Y-94282732D01*
X156171821Y-93782732D01*
X156180609Y-93778047D01*
X156190142Y-93775166D01*
X156200053Y-93774200D01*
X156209963Y-93775187D01*
X156219489Y-93778087D01*
X156228179Y-93782732D01*
X156978179Y-94282732D01*
X156985883Y-94289041D01*
X156992209Y-94296733D01*
X156996913Y-94305511D01*
X156999813Y-94315037D01*
X157000800Y-94325000D01*
X157000800Y-95325000D01*
X156999824Y-95334911D01*
X156996933Y-95344440D01*
X156992239Y-95353223D01*
X156985921Y-95360921D01*
X156978223Y-95367239D01*
X156969440Y-95371933D01*
X156959911Y-95374824D01*
X156950000Y-95375800D01*
X155450000Y-95375800D01*
X155440089Y-95374824D01*
X155430560Y-95371933D01*
X155421777Y-95367239D01*
X155414079Y-95360921D01*
X155407761Y-95353223D01*
X155403067Y-95344440D01*
X155400176Y-95334911D01*
X155399200Y-95325000D01*
X155399200Y-94325000D01*
X155400176Y-94315089D01*
G37*
G36*
X155400176Y-92865089D02*
G01*
X155403067Y-92855560D01*
X155407761Y-92846777D01*
X155414079Y-92839079D01*
X155421777Y-92832761D01*
X155430560Y-92828067D01*
X155440089Y-92825176D01*
X155450000Y-92824200D01*
X156950000Y-92824200D01*
X156959911Y-92825176D01*
X156969440Y-92828067D01*
X156978223Y-92832761D01*
X156985921Y-92839079D01*
X156992239Y-92846777D01*
X156996933Y-92855560D01*
X156999824Y-92865089D01*
X157000800Y-92875000D01*
X157000800Y-94025000D01*
X156999824Y-94034911D01*
X156996933Y-94044440D01*
X156992239Y-94053223D01*
X156985921Y-94060921D01*
X156978223Y-94067239D01*
X156969440Y-94071933D01*
X156959911Y-94074824D01*
X156950000Y-94075800D01*
X156940089Y-94074824D01*
X156930560Y-94071933D01*
X156921821Y-94067268D01*
X156200000Y-93586054D01*
X155478179Y-94067268D01*
X155469391Y-94071953D01*
X155459858Y-94074834D01*
X155449947Y-94075800D01*
X155440037Y-94074813D01*
X155430511Y-94071913D01*
X155421733Y-94067209D01*
X155414041Y-94060883D01*
X155407732Y-94053179D01*
X155403047Y-94044391D01*
X155400166Y-94034858D01*
X155399200Y-94025000D01*
X155399200Y-92875000D01*
X155400176Y-92865089D01*
G37*
%TD*%
D12*
%TO.C,M1*%
X133350000Y-97790000D03*
X135890000Y-97790000D03*
X138430000Y-97790000D03*
X140970000Y-97790000D03*
X143510000Y-97790000D03*
X146050000Y-97790000D03*
X148590000Y-97790000D03*
X151130000Y-97790000D03*
X153670000Y-97790000D03*
X156210000Y-97790000D03*
X158750000Y-97790000D03*
X161290000Y-97790000D03*
X163830000Y-97790000D03*
X166370000Y-97790000D03*
X168910000Y-97790000D03*
X171450000Y-97790000D03*
X143510000Y-77470000D03*
X146050000Y-77470000D03*
X148590000Y-77470000D03*
X151130000Y-77470000D03*
X153670000Y-77470000D03*
X156210000Y-77470000D03*
X158750000Y-77470000D03*
X161290000Y-77470000D03*
X163830000Y-77470000D03*
X166370000Y-77470000D03*
X168910000Y-77470000D03*
X171450000Y-77470000D03*
D13*
X175260000Y-78740000D03*
X175260000Y-96520000D03*
D14*
X129540000Y-96520000D03*
X129540000Y-78740000D03*
%TD*%
D15*
%TO.C,J1*%
X138500000Y-80000000D03*
D16*
X135000000Y-80000000D03*
%TD*%
%TO.C,J2*%
G36*
G01*
X132750400Y-89650800D02*
X131449600Y-89650800D01*
G75*
G02*
X131274200Y-89475400I0J175400D01*
G01*
X131274200Y-89124600D01*
G75*
G02*
X131449600Y-88949200I175400J0D01*
G01*
X132750400Y-88949200D01*
G75*
G02*
X132925800Y-89124600I0J-175400D01*
G01*
X132925800Y-89475400D01*
G75*
G02*
X132750400Y-89650800I-175400J0D01*
G01*
G37*
G36*
G01*
X132750400Y-88650800D02*
X131449600Y-88650800D01*
G75*
G02*
X131274200Y-88475400I0J175400D01*
G01*
X131274200Y-88124600D01*
G75*
G02*
X131449600Y-87949200I175400J0D01*
G01*
X132750400Y-87949200D01*
G75*
G02*
X132925800Y-88124600I0J-175400D01*
G01*
X132925800Y-88475400D01*
G75*
G02*
X132750400Y-88650800I-175400J0D01*
G01*
G37*
G36*
G01*
X132750400Y-87650800D02*
X131449600Y-87650800D01*
G75*
G02*
X131274200Y-87475400I0J175400D01*
G01*
X131274200Y-87124600D01*
G75*
G02*
X131449600Y-86949200I175400J0D01*
G01*
X132750400Y-86949200D01*
G75*
G02*
X132925800Y-87124600I0J-175400D01*
G01*
X132925800Y-87475400D01*
G75*
G02*
X132750400Y-87650800I-175400J0D01*
G01*
G37*
G36*
G01*
X132750400Y-86650800D02*
X131449600Y-86650800D01*
G75*
G02*
X131274200Y-86475400I0J175400D01*
G01*
X131274200Y-86124600D01*
G75*
G02*
X131449600Y-85949200I175400J0D01*
G01*
X132750400Y-85949200D01*
G75*
G02*
X132925800Y-86124600I0J-175400D01*
G01*
X132925800Y-86475400D01*
G75*
G02*
X132750400Y-86650800I-175400J0D01*
G01*
G37*
G36*
G01*
X128904634Y-91250800D02*
X127545366Y-91250800D01*
G75*
G02*
X127274200Y-90979634I0J271166D01*
G01*
X127274200Y-90220366D01*
G75*
G02*
X127545366Y-89949200I271166J0D01*
G01*
X128904634Y-89949200D01*
G75*
G02*
X129175800Y-90220366I0J-271166D01*
G01*
X129175800Y-90979634D01*
G75*
G02*
X128904634Y-91250800I-271166J0D01*
G01*
G37*
G36*
G01*
X128904634Y-85650800D02*
X127545366Y-85650800D01*
G75*
G02*
X127274200Y-85379634I0J271166D01*
G01*
X127274200Y-84620366D01*
G75*
G02*
X127545366Y-84349200I271166J0D01*
G01*
X128904634Y-84349200D01*
G75*
G02*
X129175800Y-84620366I0J-271166D01*
G01*
X129175800Y-85379634D01*
G75*
G02*
X128904634Y-85650800I-271166J0D01*
G01*
G37*
%TD*%
D15*
%TO.C,J3*%
X173900000Y-91100000D03*
D16*
X173900000Y-87600000D03*
X173900000Y-84100000D03*
%TD*%
M02*
