M48
; DRILL file {KiCad (5.1.6-0-10_14)} date Sunday, October 24, 2021 at 10:13:26 PM
; FORMAT={-:-/ absolute / inch / decimal}
; #@! TF.CreationDate,2021-10-24T22:13:26-07:00
; #@! TF.GenerationSoftware,Kicad,Pcbnew,(5.1.6-0-10_14)
; #@! TF.FileFunction,Plated,1,2,PTH
FMAT,2
INCH
T1C0.0079
T2C0.0130
T3C0.0394
T4C0.0472
T5C0.0984
%
G90
G05
T1
X6.2028Y-3.4783
X6.2028Y-3.5295
X6.2461Y-3.4783
X6.2461Y-3.5295
T2
X5.1Y-3.25
X5.1Y-3.65
X5.255Y-3.045
X5.255Y-3.25
X5.35Y-3.045
X5.35Y-3.25
X5.4Y-3.615
X5.5Y-3.795
X5.6Y-3.795
X5.635Y-3.7146
X5.65Y-3.6
X5.689Y-3.715
X5.7321Y-3.1337
X5.7321Y-3.1837
X5.8Y-3.72
X5.83Y-3.61
X5.86Y-3.485
X5.9843Y-3.4646
X6.0Y-3.5354
X6.01Y-3.13
X6.0433Y-3.561
X6.105Y-3.41
X6.105Y-3.605
X6.1833Y-3.41
X6.1833Y-3.605
X6.2617Y-3.41
X6.2617Y-3.605
X6.34Y-3.41
X6.34Y-3.605
X6.53Y-3.25
X6.53Y-3.36
X6.56Y-3.64
X6.75Y-3.255
X6.75Y-3.64
X6.8Y-3.15
X6.805Y-3.75
X6.965Y-3.25
X6.965Y-3.45
X6.965Y-3.64
T3
X5.25Y-3.85
X5.35Y-3.85
X5.45Y-3.85
X5.55Y-3.85
X5.65Y-3.05
X5.65Y-3.85
X5.75Y-3.05
X5.75Y-3.85
X5.85Y-3.05
X5.85Y-3.85
X5.95Y-3.05
X5.95Y-3.85
X6.05Y-3.05
X6.05Y-3.85
X6.15Y-3.05
X6.15Y-3.85
X6.25Y-3.05
X6.25Y-3.85
X6.35Y-3.05
X6.35Y-3.85
X6.45Y-3.05
X6.45Y-3.85
X6.55Y-3.05
X6.55Y-3.85
X6.65Y-3.05
X6.65Y-3.85
X6.75Y-3.05
X6.75Y-3.85
T4
X6.8465Y-3.311
X6.8465Y-3.4488
X6.8465Y-3.5866
X5.315Y-3.1496
X5.4528Y-3.1496
T5
X5.1Y-3.1
X5.1Y-3.8
T0
M30
