%TF.GenerationSoftware,KiCad,Pcbnew,(5.1.6-0-10_14)*%
%TF.CreationDate,2021-10-24T22:13:31-07:00*%
%TF.ProjectId,Motor_Tester_DRV8830_Wing,4d6f746f-725f-4546-9573-7465725f4452,v01*%
%TF.SameCoordinates,Original*%
%TF.FileFunction,Paste,Top*%
%TF.FilePolarity,Positive*%
%FSLAX46Y46*%
G04 Gerber Fmt 4.6, Leading zero omitted, Abs format (unit mm)*
G04 Created by KiCad (PCBNEW (5.1.6-0-10_14)) date 2021-10-24 22:13:31*
%MOMM*%
%LPD*%
G01*
G04 APERTURE LIST*
%ADD10R,0.800000X0.900000*%
G04 APERTURE END LIST*
%TO.C,U1*%
G36*
G01*
X144100000Y-83255000D02*
X144100000Y-83555000D01*
G75*
G02*
X143950000Y-83705000I-150000J0D01*
G01*
X142300000Y-83705000D01*
G75*
G02*
X142150000Y-83555000I0J150000D01*
G01*
X142150000Y-83255000D01*
G75*
G02*
X142300000Y-83105000I150000J0D01*
G01*
X143950000Y-83105000D01*
G75*
G02*
X144100000Y-83255000I0J-150000D01*
G01*
G37*
G36*
G01*
X144100000Y-81985000D02*
X144100000Y-82285000D01*
G75*
G02*
X143950000Y-82435000I-150000J0D01*
G01*
X142300000Y-82435000D01*
G75*
G02*
X142150000Y-82285000I0J150000D01*
G01*
X142150000Y-81985000D01*
G75*
G02*
X142300000Y-81835000I150000J0D01*
G01*
X143950000Y-81835000D01*
G75*
G02*
X144100000Y-81985000I0J-150000D01*
G01*
G37*
G36*
G01*
X144100000Y-80715000D02*
X144100000Y-81015000D01*
G75*
G02*
X143950000Y-81165000I-150000J0D01*
G01*
X142300000Y-81165000D01*
G75*
G02*
X142150000Y-81015000I0J150000D01*
G01*
X142150000Y-80715000D01*
G75*
G02*
X142300000Y-80565000I150000J0D01*
G01*
X143950000Y-80565000D01*
G75*
G02*
X144100000Y-80715000I0J-150000D01*
G01*
G37*
G36*
G01*
X144100000Y-79445000D02*
X144100000Y-79745000D01*
G75*
G02*
X143950000Y-79895000I-150000J0D01*
G01*
X142300000Y-79895000D01*
G75*
G02*
X142150000Y-79745000I0J150000D01*
G01*
X142150000Y-79445000D01*
G75*
G02*
X142300000Y-79295000I150000J0D01*
G01*
X143950000Y-79295000D01*
G75*
G02*
X144100000Y-79445000I0J-150000D01*
G01*
G37*
G36*
G01*
X149050000Y-79445000D02*
X149050000Y-79745000D01*
G75*
G02*
X148900000Y-79895000I-150000J0D01*
G01*
X147250000Y-79895000D01*
G75*
G02*
X147100000Y-79745000I0J150000D01*
G01*
X147100000Y-79445000D01*
G75*
G02*
X147250000Y-79295000I150000J0D01*
G01*
X148900000Y-79295000D01*
G75*
G02*
X149050000Y-79445000I0J-150000D01*
G01*
G37*
G36*
G01*
X149050000Y-80715000D02*
X149050000Y-81015000D01*
G75*
G02*
X148900000Y-81165000I-150000J0D01*
G01*
X147250000Y-81165000D01*
G75*
G02*
X147100000Y-81015000I0J150000D01*
G01*
X147100000Y-80715000D01*
G75*
G02*
X147250000Y-80565000I150000J0D01*
G01*
X148900000Y-80565000D01*
G75*
G02*
X149050000Y-80715000I0J-150000D01*
G01*
G37*
G36*
G01*
X149050000Y-81985000D02*
X149050000Y-82285000D01*
G75*
G02*
X148900000Y-82435000I-150000J0D01*
G01*
X147250000Y-82435000D01*
G75*
G02*
X147100000Y-82285000I0J150000D01*
G01*
X147100000Y-81985000D01*
G75*
G02*
X147250000Y-81835000I150000J0D01*
G01*
X148900000Y-81835000D01*
G75*
G02*
X149050000Y-81985000I0J-150000D01*
G01*
G37*
G36*
G01*
X149050000Y-83255000D02*
X149050000Y-83555000D01*
G75*
G02*
X148900000Y-83705000I-150000J0D01*
G01*
X147250000Y-83705000D01*
G75*
G02*
X147100000Y-83555000I0J150000D01*
G01*
X147100000Y-83255000D01*
G75*
G02*
X147250000Y-83105000I150000J0D01*
G01*
X148900000Y-83105000D01*
G75*
G02*
X149050000Y-83255000I0J-150000D01*
G01*
G37*
%TD*%
%TO.C,C1*%
G36*
G01*
X135493750Y-89850000D02*
X136406250Y-89850000D01*
G75*
G02*
X136650000Y-90093750I0J-243750D01*
G01*
X136650000Y-90581250D01*
G75*
G02*
X136406250Y-90825000I-243750J0D01*
G01*
X135493750Y-90825000D01*
G75*
G02*
X135250000Y-90581250I0J243750D01*
G01*
X135250000Y-90093750D01*
G75*
G02*
X135493750Y-89850000I243750J0D01*
G01*
G37*
G36*
G01*
X135493750Y-87975000D02*
X136406250Y-87975000D01*
G75*
G02*
X136650000Y-88218750I0J-243750D01*
G01*
X136650000Y-88706250D01*
G75*
G02*
X136406250Y-88950000I-243750J0D01*
G01*
X135493750Y-88950000D01*
G75*
G02*
X135250000Y-88706250I0J243750D01*
G01*
X135250000Y-88218750D01*
G75*
G02*
X135493750Y-87975000I243750J0D01*
G01*
G37*
%TD*%
%TO.C,C2*%
G36*
G01*
X138043750Y-89850000D02*
X138956250Y-89850000D01*
G75*
G02*
X139200000Y-90093750I0J-243750D01*
G01*
X139200000Y-90581250D01*
G75*
G02*
X138956250Y-90825000I-243750J0D01*
G01*
X138043750Y-90825000D01*
G75*
G02*
X137800000Y-90581250I0J243750D01*
G01*
X137800000Y-90093750D01*
G75*
G02*
X138043750Y-89850000I243750J0D01*
G01*
G37*
G36*
G01*
X138043750Y-87975000D02*
X138956250Y-87975000D01*
G75*
G02*
X139200000Y-88218750I0J-243750D01*
G01*
X139200000Y-88706250D01*
G75*
G02*
X138956250Y-88950000I-243750J0D01*
G01*
X138043750Y-88950000D01*
G75*
G02*
X137800000Y-88706250I0J243750D01*
G01*
X137800000Y-88218750D01*
G75*
G02*
X138043750Y-87975000I243750J0D01*
G01*
G37*
%TD*%
%TO.C,C3*%
G36*
G01*
X151256250Y-80250000D02*
X150343750Y-80250000D01*
G75*
G02*
X150100000Y-80006250I0J243750D01*
G01*
X150100000Y-79518750D01*
G75*
G02*
X150343750Y-79275000I243750J0D01*
G01*
X151256250Y-79275000D01*
G75*
G02*
X151500000Y-79518750I0J-243750D01*
G01*
X151500000Y-80006250D01*
G75*
G02*
X151256250Y-80250000I-243750J0D01*
G01*
G37*
G36*
G01*
X151256250Y-82125000D02*
X150343750Y-82125000D01*
G75*
G02*
X150100000Y-81881250I0J243750D01*
G01*
X150100000Y-81393750D01*
G75*
G02*
X150343750Y-81150000I243750J0D01*
G01*
X151256250Y-81150000D01*
G75*
G02*
X151500000Y-81393750I0J-243750D01*
G01*
X151500000Y-81881250D01*
G75*
G02*
X151256250Y-82125000I-243750J0D01*
G01*
G37*
%TD*%
%TO.C,C4*%
G36*
G01*
X146343750Y-89950000D02*
X147256250Y-89950000D01*
G75*
G02*
X147500000Y-90193750I0J-243750D01*
G01*
X147500000Y-90681250D01*
G75*
G02*
X147256250Y-90925000I-243750J0D01*
G01*
X146343750Y-90925000D01*
G75*
G02*
X146100000Y-90681250I0J243750D01*
G01*
X146100000Y-90193750D01*
G75*
G02*
X146343750Y-89950000I243750J0D01*
G01*
G37*
G36*
G01*
X146343750Y-88075000D02*
X147256250Y-88075000D01*
G75*
G02*
X147500000Y-88318750I0J-243750D01*
G01*
X147500000Y-88806250D01*
G75*
G02*
X147256250Y-89050000I-243750J0D01*
G01*
X146343750Y-89050000D01*
G75*
G02*
X146100000Y-88806250I0J243750D01*
G01*
X146100000Y-88318750D01*
G75*
G02*
X146343750Y-88075000I243750J0D01*
G01*
G37*
%TD*%
%TO.C,C6*%
G36*
G01*
X169356250Y-87300000D02*
X168443750Y-87300000D01*
G75*
G02*
X168200000Y-87056250I0J243750D01*
G01*
X168200000Y-86568750D01*
G75*
G02*
X168443750Y-86325000I243750J0D01*
G01*
X169356250Y-86325000D01*
G75*
G02*
X169600000Y-86568750I0J-243750D01*
G01*
X169600000Y-87056250D01*
G75*
G02*
X169356250Y-87300000I-243750J0D01*
G01*
G37*
G36*
G01*
X169356250Y-89175000D02*
X168443750Y-89175000D01*
G75*
G02*
X168200000Y-88931250I0J243750D01*
G01*
X168200000Y-88443750D01*
G75*
G02*
X168443750Y-88200000I243750J0D01*
G01*
X169356250Y-88200000D01*
G75*
G02*
X169600000Y-88443750I0J-243750D01*
G01*
X169600000Y-88931250D01*
G75*
G02*
X169356250Y-89175000I-243750J0D01*
G01*
G37*
%TD*%
%TO.C,C7*%
G36*
G01*
X169356250Y-91150000D02*
X168443750Y-91150000D01*
G75*
G02*
X168200000Y-90906250I0J243750D01*
G01*
X168200000Y-90418750D01*
G75*
G02*
X168443750Y-90175000I243750J0D01*
G01*
X169356250Y-90175000D01*
G75*
G02*
X169600000Y-90418750I0J-243750D01*
G01*
X169600000Y-90906250D01*
G75*
G02*
X169356250Y-91150000I-243750J0D01*
G01*
G37*
G36*
G01*
X169356250Y-93025000D02*
X168443750Y-93025000D01*
G75*
G02*
X168200000Y-92781250I0J243750D01*
G01*
X168200000Y-92293750D01*
G75*
G02*
X168443750Y-92050000I243750J0D01*
G01*
X169356250Y-92050000D01*
G75*
G02*
X169600000Y-92293750I0J-243750D01*
G01*
X169600000Y-92781250D01*
G75*
G02*
X169356250Y-93025000I-243750J0D01*
G01*
G37*
%TD*%
%TO.C,C8*%
G36*
G01*
X168443750Y-84350000D02*
X169356250Y-84350000D01*
G75*
G02*
X169600000Y-84593750I0J-243750D01*
G01*
X169600000Y-85081250D01*
G75*
G02*
X169356250Y-85325000I-243750J0D01*
G01*
X168443750Y-85325000D01*
G75*
G02*
X168200000Y-85081250I0J243750D01*
G01*
X168200000Y-84593750D01*
G75*
G02*
X168443750Y-84350000I243750J0D01*
G01*
G37*
G36*
G01*
X168443750Y-82475000D02*
X169356250Y-82475000D01*
G75*
G02*
X169600000Y-82718750I0J-243750D01*
G01*
X169600000Y-83206250D01*
G75*
G02*
X169356250Y-83450000I-243750J0D01*
G01*
X168443750Y-83450000D01*
G75*
G02*
X168200000Y-83206250I0J243750D01*
G01*
X168200000Y-82718750D01*
G75*
G02*
X168443750Y-82475000I243750J0D01*
G01*
G37*
%TD*%
%TO.C,C9*%
G36*
G01*
X132943750Y-94750000D02*
X133856250Y-94750000D01*
G75*
G02*
X134100000Y-94993750I0J-243750D01*
G01*
X134100000Y-95481250D01*
G75*
G02*
X133856250Y-95725000I-243750J0D01*
G01*
X132943750Y-95725000D01*
G75*
G02*
X132700000Y-95481250I0J243750D01*
G01*
X132700000Y-94993750D01*
G75*
G02*
X132943750Y-94750000I243750J0D01*
G01*
G37*
G36*
G01*
X132943750Y-92875000D02*
X133856250Y-92875000D01*
G75*
G02*
X134100000Y-93118750I0J-243750D01*
G01*
X134100000Y-93606250D01*
G75*
G02*
X133856250Y-93850000I-243750J0D01*
G01*
X132943750Y-93850000D01*
G75*
G02*
X132700000Y-93606250I0J243750D01*
G01*
X132700000Y-93118750D01*
G75*
G02*
X132943750Y-92875000I243750J0D01*
G01*
G37*
%TD*%
%TO.C,C10*%
G36*
G01*
X136356250Y-93850000D02*
X135443750Y-93850000D01*
G75*
G02*
X135200000Y-93606250I0J243750D01*
G01*
X135200000Y-93118750D01*
G75*
G02*
X135443750Y-92875000I243750J0D01*
G01*
X136356250Y-92875000D01*
G75*
G02*
X136600000Y-93118750I0J-243750D01*
G01*
X136600000Y-93606250D01*
G75*
G02*
X136356250Y-93850000I-243750J0D01*
G01*
G37*
G36*
G01*
X136356250Y-95725000D02*
X135443750Y-95725000D01*
G75*
G02*
X135200000Y-95481250I0J243750D01*
G01*
X135200000Y-94993750D01*
G75*
G02*
X135443750Y-94750000I243750J0D01*
G01*
X136356250Y-94750000D01*
G75*
G02*
X136600000Y-94993750I0J-243750D01*
G01*
X136600000Y-95481250D01*
G75*
G02*
X136356250Y-95725000I-243750J0D01*
G01*
G37*
%TD*%
%TO.C,C5*%
G36*
G01*
X162900000Y-82215200D02*
X162900000Y-83384800D01*
G75*
G02*
X162634800Y-83650000I-265200J0D01*
G01*
X159565200Y-83650000D01*
G75*
G02*
X159300000Y-83384800I0J265200D01*
G01*
X159300000Y-82215200D01*
G75*
G02*
X159565200Y-81950000I265200J0D01*
G01*
X162634800Y-81950000D01*
G75*
G02*
X162900000Y-82215200I0J-265200D01*
G01*
G37*
G36*
G01*
X157300000Y-82215200D02*
X157300000Y-83384800D01*
G75*
G02*
X157034800Y-83650000I-265200J0D01*
G01*
X153965200Y-83650000D01*
G75*
G02*
X153700000Y-83384800I0J265200D01*
G01*
X153700000Y-82215200D01*
G75*
G02*
X153965200Y-81950000I265200J0D01*
G01*
X157034800Y-81950000D01*
G75*
G02*
X157300000Y-82215200I0J-265200D01*
G01*
G37*
%TD*%
%TO.C,D1*%
G36*
G01*
X127775000Y-90556250D02*
X127775000Y-89643750D01*
G75*
G02*
X128018750Y-89400000I243750J0D01*
G01*
X128506250Y-89400000D01*
G75*
G02*
X128750000Y-89643750I0J-243750D01*
G01*
X128750000Y-90556250D01*
G75*
G02*
X128506250Y-90800000I-243750J0D01*
G01*
X128018750Y-90800000D01*
G75*
G02*
X127775000Y-90556250I0J243750D01*
G01*
G37*
G36*
G01*
X129650000Y-90556250D02*
X129650000Y-89643750D01*
G75*
G02*
X129893750Y-89400000I243750J0D01*
G01*
X130381250Y-89400000D01*
G75*
G02*
X130625000Y-89643750I0J-243750D01*
G01*
X130625000Y-90556250D01*
G75*
G02*
X130381250Y-90800000I-243750J0D01*
G01*
X129893750Y-90800000D01*
G75*
G02*
X129650000Y-90556250I0J243750D01*
G01*
G37*
%TD*%
%TO.C,D2*%
G36*
G01*
X129650000Y-85956250D02*
X129650000Y-85043750D01*
G75*
G02*
X129893750Y-84800000I243750J0D01*
G01*
X130381250Y-84800000D01*
G75*
G02*
X130625000Y-85043750I0J-243750D01*
G01*
X130625000Y-85956250D01*
G75*
G02*
X130381250Y-86200000I-243750J0D01*
G01*
X129893750Y-86200000D01*
G75*
G02*
X129650000Y-85956250I0J243750D01*
G01*
G37*
G36*
G01*
X127775000Y-85956250D02*
X127775000Y-85043750D01*
G75*
G02*
X128018750Y-84800000I243750J0D01*
G01*
X128506250Y-84800000D01*
G75*
G02*
X128750000Y-85043750I0J-243750D01*
G01*
X128750000Y-85956250D01*
G75*
G02*
X128506250Y-86200000I-243750J0D01*
G01*
X128018750Y-86200000D01*
G75*
G02*
X127775000Y-85956250I0J243750D01*
G01*
G37*
%TD*%
D10*
%TO.C,Q1*%
X137550000Y-86725000D03*
X139450000Y-86725000D03*
X138500000Y-84725000D03*
%TD*%
%TO.C,R2*%
G36*
G01*
X140593750Y-94750000D02*
X141506250Y-94750000D01*
G75*
G02*
X141750000Y-94993750I0J-243750D01*
G01*
X141750000Y-95481250D01*
G75*
G02*
X141506250Y-95725000I-243750J0D01*
G01*
X140593750Y-95725000D01*
G75*
G02*
X140350000Y-95481250I0J243750D01*
G01*
X140350000Y-94993750D01*
G75*
G02*
X140593750Y-94750000I243750J0D01*
G01*
G37*
G36*
G01*
X140593750Y-92875000D02*
X141506250Y-92875000D01*
G75*
G02*
X141750000Y-93118750I0J-243750D01*
G01*
X141750000Y-93606250D01*
G75*
G02*
X141506250Y-93850000I-243750J0D01*
G01*
X140593750Y-93850000D01*
G75*
G02*
X140350000Y-93606250I0J243750D01*
G01*
X140350000Y-93118750D01*
G75*
G02*
X140593750Y-92875000I243750J0D01*
G01*
G37*
%TD*%
%TO.C,R3*%
G36*
G01*
X137943750Y-92875000D02*
X138856250Y-92875000D01*
G75*
G02*
X139100000Y-93118750I0J-243750D01*
G01*
X139100000Y-93606250D01*
G75*
G02*
X138856250Y-93850000I-243750J0D01*
G01*
X137943750Y-93850000D01*
G75*
G02*
X137700000Y-93606250I0J243750D01*
G01*
X137700000Y-93118750D01*
G75*
G02*
X137943750Y-92875000I243750J0D01*
G01*
G37*
G36*
G01*
X137943750Y-94750000D02*
X138856250Y-94750000D01*
G75*
G02*
X139100000Y-94993750I0J-243750D01*
G01*
X139100000Y-95481250D01*
G75*
G02*
X138856250Y-95725000I-243750J0D01*
G01*
X137943750Y-95725000D01*
G75*
G02*
X137700000Y-95481250I0J243750D01*
G01*
X137700000Y-94993750D01*
G75*
G02*
X137943750Y-94750000I243750J0D01*
G01*
G37*
%TD*%
%TO.C,R5*%
G36*
G01*
X131275000Y-90556250D02*
X131275000Y-89643750D01*
G75*
G02*
X131518750Y-89400000I243750J0D01*
G01*
X132006250Y-89400000D01*
G75*
G02*
X132250000Y-89643750I0J-243750D01*
G01*
X132250000Y-90556250D01*
G75*
G02*
X132006250Y-90800000I-243750J0D01*
G01*
X131518750Y-90800000D01*
G75*
G02*
X131275000Y-90556250I0J243750D01*
G01*
G37*
G36*
G01*
X133150000Y-90556250D02*
X133150000Y-89643750D01*
G75*
G02*
X133393750Y-89400000I243750J0D01*
G01*
X133881250Y-89400000D01*
G75*
G02*
X134125000Y-89643750I0J-243750D01*
G01*
X134125000Y-90556250D01*
G75*
G02*
X133881250Y-90800000I-243750J0D01*
G01*
X133393750Y-90800000D01*
G75*
G02*
X133150000Y-90556250I0J243750D01*
G01*
G37*
%TD*%
%TO.C,R6*%
G36*
G01*
X133150000Y-85956250D02*
X133150000Y-85043750D01*
G75*
G02*
X133393750Y-84800000I243750J0D01*
G01*
X133881250Y-84800000D01*
G75*
G02*
X134125000Y-85043750I0J-243750D01*
G01*
X134125000Y-85956250D01*
G75*
G02*
X133881250Y-86200000I-243750J0D01*
G01*
X133393750Y-86200000D01*
G75*
G02*
X133150000Y-85956250I0J243750D01*
G01*
G37*
G36*
G01*
X131275000Y-85956250D02*
X131275000Y-85043750D01*
G75*
G02*
X131518750Y-84800000I243750J0D01*
G01*
X132006250Y-84800000D01*
G75*
G02*
X132250000Y-85043750I0J-243750D01*
G01*
X132250000Y-85956250D01*
G75*
G02*
X132006250Y-86200000I-243750J0D01*
G01*
X131518750Y-86200000D01*
G75*
G02*
X131275000Y-85956250I0J243750D01*
G01*
G37*
%TD*%
%TO.C,U2*%
G36*
G01*
X160975000Y-89925000D02*
X160975000Y-90075000D01*
G75*
G02*
X160900000Y-90150000I-75000J0D01*
G01*
X159600000Y-90150000D01*
G75*
G02*
X159525000Y-90075000I0J75000D01*
G01*
X159525000Y-89925000D01*
G75*
G02*
X159600000Y-89850000I75000J0D01*
G01*
X160900000Y-89850000D01*
G75*
G02*
X160975000Y-89925000I0J-75000D01*
G01*
G37*
G36*
G01*
X160975000Y-89425000D02*
X160975000Y-89575000D01*
G75*
G02*
X160900000Y-89650000I-75000J0D01*
G01*
X159600000Y-89650000D01*
G75*
G02*
X159525000Y-89575000I0J75000D01*
G01*
X159525000Y-89425000D01*
G75*
G02*
X159600000Y-89350000I75000J0D01*
G01*
X160900000Y-89350000D01*
G75*
G02*
X160975000Y-89425000I0J-75000D01*
G01*
G37*
G36*
G01*
X160975000Y-88925000D02*
X160975000Y-89075000D01*
G75*
G02*
X160900000Y-89150000I-75000J0D01*
G01*
X159600000Y-89150000D01*
G75*
G02*
X159525000Y-89075000I0J75000D01*
G01*
X159525000Y-88925000D01*
G75*
G02*
X159600000Y-88850000I75000J0D01*
G01*
X160900000Y-88850000D01*
G75*
G02*
X160975000Y-88925000I0J-75000D01*
G01*
G37*
G36*
G01*
X160975000Y-88425000D02*
X160975000Y-88575000D01*
G75*
G02*
X160900000Y-88650000I-75000J0D01*
G01*
X159600000Y-88650000D01*
G75*
G02*
X159525000Y-88575000I0J75000D01*
G01*
X159525000Y-88425000D01*
G75*
G02*
X159600000Y-88350000I75000J0D01*
G01*
X160900000Y-88350000D01*
G75*
G02*
X160975000Y-88425000I0J-75000D01*
G01*
G37*
G36*
G01*
X160975000Y-87925000D02*
X160975000Y-88075000D01*
G75*
G02*
X160900000Y-88150000I-75000J0D01*
G01*
X159600000Y-88150000D01*
G75*
G02*
X159525000Y-88075000I0J75000D01*
G01*
X159525000Y-87925000D01*
G75*
G02*
X159600000Y-87850000I75000J0D01*
G01*
X160900000Y-87850000D01*
G75*
G02*
X160975000Y-87925000I0J-75000D01*
G01*
G37*
G36*
G01*
X156675000Y-87925000D02*
X156675000Y-88075000D01*
G75*
G02*
X156600000Y-88150000I-75000J0D01*
G01*
X155300000Y-88150000D01*
G75*
G02*
X155225000Y-88075000I0J75000D01*
G01*
X155225000Y-87925000D01*
G75*
G02*
X155300000Y-87850000I75000J0D01*
G01*
X156600000Y-87850000D01*
G75*
G02*
X156675000Y-87925000I0J-75000D01*
G01*
G37*
G36*
G01*
X156675000Y-88425000D02*
X156675000Y-88575000D01*
G75*
G02*
X156600000Y-88650000I-75000J0D01*
G01*
X155300000Y-88650000D01*
G75*
G02*
X155225000Y-88575000I0J75000D01*
G01*
X155225000Y-88425000D01*
G75*
G02*
X155300000Y-88350000I75000J0D01*
G01*
X156600000Y-88350000D01*
G75*
G02*
X156675000Y-88425000I0J-75000D01*
G01*
G37*
G36*
G01*
X156675000Y-88925000D02*
X156675000Y-89075000D01*
G75*
G02*
X156600000Y-89150000I-75000J0D01*
G01*
X155300000Y-89150000D01*
G75*
G02*
X155225000Y-89075000I0J75000D01*
G01*
X155225000Y-88925000D01*
G75*
G02*
X155300000Y-88850000I75000J0D01*
G01*
X156600000Y-88850000D01*
G75*
G02*
X156675000Y-88925000I0J-75000D01*
G01*
G37*
G36*
G01*
X156675000Y-89425000D02*
X156675000Y-89575000D01*
G75*
G02*
X156600000Y-89650000I-75000J0D01*
G01*
X155300000Y-89650000D01*
G75*
G02*
X155225000Y-89575000I0J75000D01*
G01*
X155225000Y-89425000D01*
G75*
G02*
X155300000Y-89350000I75000J0D01*
G01*
X156600000Y-89350000D01*
G75*
G02*
X156675000Y-89425000I0J-75000D01*
G01*
G37*
G36*
G01*
X156675000Y-89925000D02*
X156675000Y-90075000D01*
G75*
G02*
X156600000Y-90150000I-75000J0D01*
G01*
X155300000Y-90150000D01*
G75*
G02*
X155225000Y-90075000I0J75000D01*
G01*
X155225000Y-89925000D01*
G75*
G02*
X155300000Y-89850000I75000J0D01*
G01*
X156600000Y-89850000D01*
G75*
G02*
X156675000Y-89925000I0J-75000D01*
G01*
G37*
G36*
G01*
X158870000Y-89250000D02*
X158870000Y-89690000D01*
G75*
G02*
X158695000Y-89865000I-175000J0D01*
G01*
X158345000Y-89865000D01*
G75*
G02*
X158170000Y-89690000I0J175000D01*
G01*
X158170000Y-89250000D01*
G75*
G02*
X158345000Y-89075000I175000J0D01*
G01*
X158695000Y-89075000D01*
G75*
G02*
X158870000Y-89250000I0J-175000D01*
G01*
G37*
G36*
G01*
X158870000Y-88310000D02*
X158870000Y-88750000D01*
G75*
G02*
X158695000Y-88925000I-175000J0D01*
G01*
X158345000Y-88925000D01*
G75*
G02*
X158170000Y-88750000I0J175000D01*
G01*
X158170000Y-88310000D01*
G75*
G02*
X158345000Y-88135000I175000J0D01*
G01*
X158695000Y-88135000D01*
G75*
G02*
X158870000Y-88310000I0J-175000D01*
G01*
G37*
G36*
G01*
X158030000Y-89250000D02*
X158030000Y-89690000D01*
G75*
G02*
X157855000Y-89865000I-175000J0D01*
G01*
X157505000Y-89865000D01*
G75*
G02*
X157330000Y-89690000I0J175000D01*
G01*
X157330000Y-89250000D01*
G75*
G02*
X157505000Y-89075000I175000J0D01*
G01*
X157855000Y-89075000D01*
G75*
G02*
X158030000Y-89250000I0J-175000D01*
G01*
G37*
G36*
G01*
X158030000Y-88310000D02*
X158030000Y-88750000D01*
G75*
G02*
X157855000Y-88925000I-175000J0D01*
G01*
X157505000Y-88925000D01*
G75*
G02*
X157330000Y-88750000I0J175000D01*
G01*
X157330000Y-88310000D01*
G75*
G02*
X157505000Y-88135000I175000J0D01*
G01*
X157855000Y-88135000D01*
G75*
G02*
X158030000Y-88310000I0J-175000D01*
G01*
G37*
%TD*%
%TO.C,R4*%
G36*
G01*
X165237000Y-86621000D02*
X166487000Y-86621000D01*
G75*
G02*
X166737000Y-86871000I0J-250000D01*
G01*
X166737000Y-87621000D01*
G75*
G02*
X166487000Y-87871000I-250000J0D01*
G01*
X165237000Y-87871000D01*
G75*
G02*
X164987000Y-87621000I0J250000D01*
G01*
X164987000Y-86871000D01*
G75*
G02*
X165237000Y-86621000I250000J0D01*
G01*
G37*
G36*
G01*
X165237000Y-89421000D02*
X166487000Y-89421000D01*
G75*
G02*
X166737000Y-89671000I0J-250000D01*
G01*
X166737000Y-90421000D01*
G75*
G02*
X166487000Y-90671000I-250000J0D01*
G01*
X165237000Y-90671000D01*
G75*
G02*
X164987000Y-90421000I0J250000D01*
G01*
X164987000Y-89671000D01*
G75*
G02*
X165237000Y-89421000I250000J0D01*
G01*
G37*
%TD*%
%TO.C,R1*%
G36*
G01*
X147925000Y-85575000D02*
X147925000Y-86825000D01*
G75*
G02*
X147675000Y-87075000I-250000J0D01*
G01*
X146925000Y-87075000D01*
G75*
G02*
X146675000Y-86825000I0J250000D01*
G01*
X146675000Y-85575000D01*
G75*
G02*
X146925000Y-85325000I250000J0D01*
G01*
X147675000Y-85325000D01*
G75*
G02*
X147925000Y-85575000I0J-250000D01*
G01*
G37*
G36*
G01*
X145125000Y-85575000D02*
X145125000Y-86825000D01*
G75*
G02*
X144875000Y-87075000I-250000J0D01*
G01*
X144125000Y-87075000D01*
G75*
G02*
X143875000Y-86825000I0J250000D01*
G01*
X143875000Y-85575000D01*
G75*
G02*
X144125000Y-85325000I250000J0D01*
G01*
X144875000Y-85325000D01*
G75*
G02*
X145125000Y-85575000I0J-250000D01*
G01*
G37*
%TD*%
M02*
