M48
; DRILL file {KiCad (5.1.6-0-10_14)} date Wednesday, August 04, 2021 at 10:25:43 AM
; FORMAT={-:-/ absolute / inch / decimal}
; #@! TF.CreationDate,2021-08-04T10:25:43-07:00
; #@! TF.GenerationSoftware,Kicad,Pcbnew,(5.1.6-0-10_14)
; #@! TF.FileFunction,Plated,1,2,PTH
FMAT,2
INCH
T1C0.0079
T2C0.0130
T3C0.0394
T4C0.0472
T5C0.0984
%
G90
G05
T1
X6.4044Y-3.5183
X6.4044Y-3.5617
X6.4556Y-3.5183
X6.4556Y-3.5617
T2
X5.045Y-3.24
X5.05Y-3.63
X5.24Y-3.63
X5.255Y-3.045
X5.255Y-3.25
X5.37Y-3.045
X5.37Y-3.25
X5.45Y-3.46
X5.45Y-3.545
X5.5578Y-3.4922
X5.56Y-3.585
X5.6946Y-3.5946
X5.72Y-3.15
X5.75Y-3.555
X5.91Y-3.735
X5.9396Y-3.5946
X5.95Y-3.735
X6.0Y-3.525
X6.205Y-3.575
X6.205Y-3.61
X6.23Y-3.47
X6.26Y-3.455
X6.35Y-3.625
X6.55Y-3.285
X6.55Y-3.365
X6.55Y-3.42
X6.55Y-3.55
X6.6Y-3.13
X6.75Y-3.255
X6.75Y-3.64
X6.8Y-3.15
X6.8Y-3.75
X6.965Y-3.25
X6.965Y-3.45
X6.965Y-3.64
T3
X5.25Y-3.85
X5.35Y-3.85
X5.45Y-3.85
X5.55Y-3.85
X5.65Y-3.05
X5.65Y-3.85
X5.75Y-3.05
X5.75Y-3.85
X5.85Y-3.05
X5.85Y-3.85
X5.95Y-3.05
X5.95Y-3.85
X6.05Y-3.05
X6.05Y-3.85
X6.15Y-3.05
X6.15Y-3.85
X6.25Y-3.05
X6.25Y-3.85
X6.35Y-3.05
X6.35Y-3.85
X6.45Y-3.05
X6.45Y-3.85
X6.55Y-3.05
X6.55Y-3.85
X6.65Y-3.05
X6.65Y-3.85
X6.75Y-3.05
X6.75Y-3.85
T4
X5.3122Y-3.15
X5.45Y-3.15
X6.845Y-3.3094
X6.845Y-3.4472
X6.845Y-3.585
T5
X5.1Y-3.1
X5.1Y-3.8
T0
M30
