%TF.GenerationSoftware,KiCad,Pcbnew,(5.1.6-0-10_14)*%
%TF.CreationDate,2021-08-04T10:25:44-07:00*%
%TF.ProjectId,Motor_Tester_DRV8830_Wing,4d6f746f-725f-4546-9573-7465725f4452,v00*%
%TF.SameCoordinates,Original*%
%TF.FileFunction,Paste,Top*%
%TF.FilePolarity,Positive*%
%FSLAX46Y46*%
G04 Gerber Fmt 4.6, Leading zero omitted, Abs format (unit mm)*
G04 Created by KiCad (PCBNEW (5.1.6-0-10_14)) date 2021-08-04 10:25:44*
%MOMM*%
%LPD*%
G01*
G04 APERTURE LIST*
%ADD10R,0.800000X0.900000*%
G04 APERTURE END LIST*
%TO.C,C5*%
G36*
G01*
X169366250Y-92992000D02*
X168453750Y-92992000D01*
G75*
G02*
X168210000Y-92748250I0J243750D01*
G01*
X168210000Y-92260750D01*
G75*
G02*
X168453750Y-92017000I243750J0D01*
G01*
X169366250Y-92017000D01*
G75*
G02*
X169610000Y-92260750I0J-243750D01*
G01*
X169610000Y-92748250D01*
G75*
G02*
X169366250Y-92992000I-243750J0D01*
G01*
G37*
G36*
G01*
X169366250Y-91117000D02*
X168453750Y-91117000D01*
G75*
G02*
X168210000Y-90873250I0J243750D01*
G01*
X168210000Y-90385750D01*
G75*
G02*
X168453750Y-90142000I243750J0D01*
G01*
X169366250Y-90142000D01*
G75*
G02*
X169610000Y-90385750I0J-243750D01*
G01*
X169610000Y-90873250D01*
G75*
G02*
X169366250Y-91117000I-243750J0D01*
G01*
G37*
%TD*%
%TO.C,C6*%
G36*
G01*
X168453750Y-84270000D02*
X169366250Y-84270000D01*
G75*
G02*
X169610000Y-84513750I0J-243750D01*
G01*
X169610000Y-85001250D01*
G75*
G02*
X169366250Y-85245000I-243750J0D01*
G01*
X168453750Y-85245000D01*
G75*
G02*
X168210000Y-85001250I0J243750D01*
G01*
X168210000Y-84513750D01*
G75*
G02*
X168453750Y-84270000I243750J0D01*
G01*
G37*
G36*
G01*
X168453750Y-82395000D02*
X169366250Y-82395000D01*
G75*
G02*
X169610000Y-82638750I0J-243750D01*
G01*
X169610000Y-83126250D01*
G75*
G02*
X169366250Y-83370000I-243750J0D01*
G01*
X168453750Y-83370000D01*
G75*
G02*
X168210000Y-83126250I0J243750D01*
G01*
X168210000Y-82638750D01*
G75*
G02*
X168453750Y-82395000I243750J0D01*
G01*
G37*
%TD*%
%TO.C,C7*%
G36*
G01*
X169366250Y-89182000D02*
X168453750Y-89182000D01*
G75*
G02*
X168210000Y-88938250I0J243750D01*
G01*
X168210000Y-88450750D01*
G75*
G02*
X168453750Y-88207000I243750J0D01*
G01*
X169366250Y-88207000D01*
G75*
G02*
X169610000Y-88450750I0J-243750D01*
G01*
X169610000Y-88938250D01*
G75*
G02*
X169366250Y-89182000I-243750J0D01*
G01*
G37*
G36*
G01*
X169366250Y-87307000D02*
X168453750Y-87307000D01*
G75*
G02*
X168210000Y-87063250I0J243750D01*
G01*
X168210000Y-86575750D01*
G75*
G02*
X168453750Y-86332000I243750J0D01*
G01*
X169366250Y-86332000D01*
G75*
G02*
X169610000Y-86575750I0J-243750D01*
G01*
X169610000Y-87063250D01*
G75*
G02*
X169366250Y-87307000I-243750J0D01*
G01*
G37*
%TD*%
%TO.C,C9*%
G36*
G01*
X140029250Y-95532000D02*
X139116750Y-95532000D01*
G75*
G02*
X138873000Y-95288250I0J243750D01*
G01*
X138873000Y-94800750D01*
G75*
G02*
X139116750Y-94557000I243750J0D01*
G01*
X140029250Y-94557000D01*
G75*
G02*
X140273000Y-94800750I0J-243750D01*
G01*
X140273000Y-95288250D01*
G75*
G02*
X140029250Y-95532000I-243750J0D01*
G01*
G37*
G36*
G01*
X140029250Y-93657000D02*
X139116750Y-93657000D01*
G75*
G02*
X138873000Y-93413250I0J243750D01*
G01*
X138873000Y-92925750D01*
G75*
G02*
X139116750Y-92682000I243750J0D01*
G01*
X140029250Y-92682000D01*
G75*
G02*
X140273000Y-92925750I0J-243750D01*
G01*
X140273000Y-93413250D01*
G75*
G02*
X140029250Y-93657000I-243750J0D01*
G01*
G37*
%TD*%
%TO.C,C10*%
G36*
G01*
X137743250Y-93657000D02*
X136830750Y-93657000D01*
G75*
G02*
X136587000Y-93413250I0J243750D01*
G01*
X136587000Y-92925750D01*
G75*
G02*
X136830750Y-92682000I243750J0D01*
G01*
X137743250Y-92682000D01*
G75*
G02*
X137987000Y-92925750I0J-243750D01*
G01*
X137987000Y-93413250D01*
G75*
G02*
X137743250Y-93657000I-243750J0D01*
G01*
G37*
G36*
G01*
X137743250Y-95532000D02*
X136830750Y-95532000D01*
G75*
G02*
X136587000Y-95288250I0J243750D01*
G01*
X136587000Y-94800750D01*
G75*
G02*
X136830750Y-94557000I243750J0D01*
G01*
X137743250Y-94557000D01*
G75*
G02*
X137987000Y-94800750I0J-243750D01*
G01*
X137987000Y-95288250D01*
G75*
G02*
X137743250Y-95532000I-243750J0D01*
G01*
G37*
%TD*%
D10*
%TO.C,Q1*%
X142814000Y-85074000D03*
X144714000Y-85074000D03*
X143764000Y-83074000D03*
%TD*%
%TO.C,R5*%
G36*
G01*
X134671750Y-92682000D02*
X135584250Y-92682000D01*
G75*
G02*
X135828000Y-92925750I0J-243750D01*
G01*
X135828000Y-93413250D01*
G75*
G02*
X135584250Y-93657000I-243750J0D01*
G01*
X134671750Y-93657000D01*
G75*
G02*
X134428000Y-93413250I0J243750D01*
G01*
X134428000Y-92925750D01*
G75*
G02*
X134671750Y-92682000I243750J0D01*
G01*
G37*
G36*
G01*
X134671750Y-94557000D02*
X135584250Y-94557000D01*
G75*
G02*
X135828000Y-94800750I0J-243750D01*
G01*
X135828000Y-95288250D01*
G75*
G02*
X135584250Y-95532000I-243750J0D01*
G01*
X134671750Y-95532000D01*
G75*
G02*
X134428000Y-95288250I0J243750D01*
G01*
X134428000Y-94800750D01*
G75*
G02*
X134671750Y-94557000I243750J0D01*
G01*
G37*
%TD*%
%TO.C,R6*%
G36*
G01*
X134671750Y-84427000D02*
X135584250Y-84427000D01*
G75*
G02*
X135828000Y-84670750I0J-243750D01*
G01*
X135828000Y-85158250D01*
G75*
G02*
X135584250Y-85402000I-243750J0D01*
G01*
X134671750Y-85402000D01*
G75*
G02*
X134428000Y-85158250I0J243750D01*
G01*
X134428000Y-84670750D01*
G75*
G02*
X134671750Y-84427000I243750J0D01*
G01*
G37*
G36*
G01*
X134671750Y-86302000D02*
X135584250Y-86302000D01*
G75*
G02*
X135828000Y-86545750I0J-243750D01*
G01*
X135828000Y-87033250D01*
G75*
G02*
X135584250Y-87277000I-243750J0D01*
G01*
X134671750Y-87277000D01*
G75*
G02*
X134428000Y-87033250I0J243750D01*
G01*
X134428000Y-86545750D01*
G75*
G02*
X134671750Y-86302000I243750J0D01*
G01*
G37*
%TD*%
%TO.C,U1*%
G36*
G01*
X142323000Y-86852000D02*
X142323000Y-86652000D01*
G75*
G02*
X142423000Y-86552000I100000J0D01*
G01*
X143698000Y-86552000D01*
G75*
G02*
X143798000Y-86652000I0J-100000D01*
G01*
X143798000Y-86852000D01*
G75*
G02*
X143698000Y-86952000I-100000J0D01*
G01*
X142423000Y-86952000D01*
G75*
G02*
X142323000Y-86852000I0J100000D01*
G01*
G37*
G36*
G01*
X142323000Y-87502000D02*
X142323000Y-87302000D01*
G75*
G02*
X142423000Y-87202000I100000J0D01*
G01*
X143698000Y-87202000D01*
G75*
G02*
X143798000Y-87302000I0J-100000D01*
G01*
X143798000Y-87502000D01*
G75*
G02*
X143698000Y-87602000I-100000J0D01*
G01*
X142423000Y-87602000D01*
G75*
G02*
X142323000Y-87502000I0J100000D01*
G01*
G37*
G36*
G01*
X142323000Y-88152000D02*
X142323000Y-87952000D01*
G75*
G02*
X142423000Y-87852000I100000J0D01*
G01*
X143698000Y-87852000D01*
G75*
G02*
X143798000Y-87952000I0J-100000D01*
G01*
X143798000Y-88152000D01*
G75*
G02*
X143698000Y-88252000I-100000J0D01*
G01*
X142423000Y-88252000D01*
G75*
G02*
X142323000Y-88152000I0J100000D01*
G01*
G37*
G36*
G01*
X142323000Y-88802000D02*
X142323000Y-88602000D01*
G75*
G02*
X142423000Y-88502000I100000J0D01*
G01*
X143698000Y-88502000D01*
G75*
G02*
X143798000Y-88602000I0J-100000D01*
G01*
X143798000Y-88802000D01*
G75*
G02*
X143698000Y-88902000I-100000J0D01*
G01*
X142423000Y-88902000D01*
G75*
G02*
X142323000Y-88802000I0J100000D01*
G01*
G37*
G36*
G01*
X142323000Y-89452000D02*
X142323000Y-89252000D01*
G75*
G02*
X142423000Y-89152000I100000J0D01*
G01*
X143698000Y-89152000D01*
G75*
G02*
X143798000Y-89252000I0J-100000D01*
G01*
X143798000Y-89452000D01*
G75*
G02*
X143698000Y-89552000I-100000J0D01*
G01*
X142423000Y-89552000D01*
G75*
G02*
X142323000Y-89452000I0J100000D01*
G01*
G37*
G36*
G01*
X142323000Y-90102000D02*
X142323000Y-89902000D01*
G75*
G02*
X142423000Y-89802000I100000J0D01*
G01*
X143698000Y-89802000D01*
G75*
G02*
X143798000Y-89902000I0J-100000D01*
G01*
X143798000Y-90102000D01*
G75*
G02*
X143698000Y-90202000I-100000J0D01*
G01*
X142423000Y-90202000D01*
G75*
G02*
X142323000Y-90102000I0J100000D01*
G01*
G37*
G36*
G01*
X142323000Y-90752000D02*
X142323000Y-90552000D01*
G75*
G02*
X142423000Y-90452000I100000J0D01*
G01*
X143698000Y-90452000D01*
G75*
G02*
X143798000Y-90552000I0J-100000D01*
G01*
X143798000Y-90752000D01*
G75*
G02*
X143698000Y-90852000I-100000J0D01*
G01*
X142423000Y-90852000D01*
G75*
G02*
X142323000Y-90752000I0J100000D01*
G01*
G37*
G36*
G01*
X142323000Y-91402000D02*
X142323000Y-91202000D01*
G75*
G02*
X142423000Y-91102000I100000J0D01*
G01*
X143698000Y-91102000D01*
G75*
G02*
X143798000Y-91202000I0J-100000D01*
G01*
X143798000Y-91402000D01*
G75*
G02*
X143698000Y-91502000I-100000J0D01*
G01*
X142423000Y-91502000D01*
G75*
G02*
X142323000Y-91402000I0J100000D01*
G01*
G37*
G36*
G01*
X148048000Y-91402000D02*
X148048000Y-91202000D01*
G75*
G02*
X148148000Y-91102000I100000J0D01*
G01*
X149423000Y-91102000D01*
G75*
G02*
X149523000Y-91202000I0J-100000D01*
G01*
X149523000Y-91402000D01*
G75*
G02*
X149423000Y-91502000I-100000J0D01*
G01*
X148148000Y-91502000D01*
G75*
G02*
X148048000Y-91402000I0J100000D01*
G01*
G37*
G36*
G01*
X148048000Y-90752000D02*
X148048000Y-90552000D01*
G75*
G02*
X148148000Y-90452000I100000J0D01*
G01*
X149423000Y-90452000D01*
G75*
G02*
X149523000Y-90552000I0J-100000D01*
G01*
X149523000Y-90752000D01*
G75*
G02*
X149423000Y-90852000I-100000J0D01*
G01*
X148148000Y-90852000D01*
G75*
G02*
X148048000Y-90752000I0J100000D01*
G01*
G37*
G36*
G01*
X148048000Y-90102000D02*
X148048000Y-89902000D01*
G75*
G02*
X148148000Y-89802000I100000J0D01*
G01*
X149423000Y-89802000D01*
G75*
G02*
X149523000Y-89902000I0J-100000D01*
G01*
X149523000Y-90102000D01*
G75*
G02*
X149423000Y-90202000I-100000J0D01*
G01*
X148148000Y-90202000D01*
G75*
G02*
X148048000Y-90102000I0J100000D01*
G01*
G37*
G36*
G01*
X148048000Y-89452000D02*
X148048000Y-89252000D01*
G75*
G02*
X148148000Y-89152000I100000J0D01*
G01*
X149423000Y-89152000D01*
G75*
G02*
X149523000Y-89252000I0J-100000D01*
G01*
X149523000Y-89452000D01*
G75*
G02*
X149423000Y-89552000I-100000J0D01*
G01*
X148148000Y-89552000D01*
G75*
G02*
X148048000Y-89452000I0J100000D01*
G01*
G37*
G36*
G01*
X148048000Y-88802000D02*
X148048000Y-88602000D01*
G75*
G02*
X148148000Y-88502000I100000J0D01*
G01*
X149423000Y-88502000D01*
G75*
G02*
X149523000Y-88602000I0J-100000D01*
G01*
X149523000Y-88802000D01*
G75*
G02*
X149423000Y-88902000I-100000J0D01*
G01*
X148148000Y-88902000D01*
G75*
G02*
X148048000Y-88802000I0J100000D01*
G01*
G37*
G36*
G01*
X148048000Y-88152000D02*
X148048000Y-87952000D01*
G75*
G02*
X148148000Y-87852000I100000J0D01*
G01*
X149423000Y-87852000D01*
G75*
G02*
X149523000Y-87952000I0J-100000D01*
G01*
X149523000Y-88152000D01*
G75*
G02*
X149423000Y-88252000I-100000J0D01*
G01*
X148148000Y-88252000D01*
G75*
G02*
X148048000Y-88152000I0J100000D01*
G01*
G37*
G36*
G01*
X148048000Y-87502000D02*
X148048000Y-87302000D01*
G75*
G02*
X148148000Y-87202000I100000J0D01*
G01*
X149423000Y-87202000D01*
G75*
G02*
X149523000Y-87302000I0J-100000D01*
G01*
X149523000Y-87502000D01*
G75*
G02*
X149423000Y-87602000I-100000J0D01*
G01*
X148148000Y-87602000D01*
G75*
G02*
X148048000Y-87502000I0J100000D01*
G01*
G37*
G36*
G01*
X148048000Y-86852000D02*
X148048000Y-86652000D01*
G75*
G02*
X148148000Y-86552000I100000J0D01*
G01*
X149423000Y-86552000D01*
G75*
G02*
X149523000Y-86652000I0J-100000D01*
G01*
X149523000Y-86852000D01*
G75*
G02*
X149423000Y-86952000I-100000J0D01*
G01*
X148148000Y-86952000D01*
G75*
G02*
X148048000Y-86852000I0J100000D01*
G01*
G37*
%TD*%
%TO.C,C1*%
G36*
G01*
X137743250Y-87277000D02*
X136830750Y-87277000D01*
G75*
G02*
X136587000Y-87033250I0J243750D01*
G01*
X136587000Y-86545750D01*
G75*
G02*
X136830750Y-86302000I243750J0D01*
G01*
X137743250Y-86302000D01*
G75*
G02*
X137987000Y-86545750I0J-243750D01*
G01*
X137987000Y-87033250D01*
G75*
G02*
X137743250Y-87277000I-243750J0D01*
G01*
G37*
G36*
G01*
X137743250Y-85402000D02*
X136830750Y-85402000D01*
G75*
G02*
X136587000Y-85158250I0J243750D01*
G01*
X136587000Y-84670750D01*
G75*
G02*
X136830750Y-84427000I243750J0D01*
G01*
X137743250Y-84427000D01*
G75*
G02*
X137987000Y-84670750I0J-243750D01*
G01*
X137987000Y-85158250D01*
G75*
G02*
X137743250Y-85402000I-243750J0D01*
G01*
G37*
%TD*%
%TO.C,C2*%
G36*
G01*
X140029250Y-85402000D02*
X139116750Y-85402000D01*
G75*
G02*
X138873000Y-85158250I0J243750D01*
G01*
X138873000Y-84670750D01*
G75*
G02*
X139116750Y-84427000I243750J0D01*
G01*
X140029250Y-84427000D01*
G75*
G02*
X140273000Y-84670750I0J-243750D01*
G01*
X140273000Y-85158250D01*
G75*
G02*
X140029250Y-85402000I-243750J0D01*
G01*
G37*
G36*
G01*
X140029250Y-87277000D02*
X139116750Y-87277000D01*
G75*
G02*
X138873000Y-87033250I0J243750D01*
G01*
X138873000Y-86545750D01*
G75*
G02*
X139116750Y-86302000I243750J0D01*
G01*
X140029250Y-86302000D01*
G75*
G02*
X140273000Y-86545750I0J-243750D01*
G01*
X140273000Y-87033250D01*
G75*
G02*
X140029250Y-87277000I-243750J0D01*
G01*
G37*
%TD*%
%TO.C,C4*%
G36*
G01*
X146530000Y-85292250D02*
X146530000Y-84379750D01*
G75*
G02*
X146773750Y-84136000I243750J0D01*
G01*
X147261250Y-84136000D01*
G75*
G02*
X147505000Y-84379750I0J-243750D01*
G01*
X147505000Y-85292250D01*
G75*
G02*
X147261250Y-85536000I-243750J0D01*
G01*
X146773750Y-85536000D01*
G75*
G02*
X146530000Y-85292250I0J243750D01*
G01*
G37*
G36*
G01*
X148405000Y-85292250D02*
X148405000Y-84379750D01*
G75*
G02*
X148648750Y-84136000I243750J0D01*
G01*
X149136250Y-84136000D01*
G75*
G02*
X149380000Y-84379750I0J-243750D01*
G01*
X149380000Y-85292250D01*
G75*
G02*
X149136250Y-85536000I-243750J0D01*
G01*
X148648750Y-85536000D01*
G75*
G02*
X148405000Y-85292250I0J243750D01*
G01*
G37*
%TD*%
%TO.C,D1*%
G36*
G01*
X129337750Y-88618000D02*
X130250250Y-88618000D01*
G75*
G02*
X130494000Y-88861750I0J-243750D01*
G01*
X130494000Y-89349250D01*
G75*
G02*
X130250250Y-89593000I-243750J0D01*
G01*
X129337750Y-89593000D01*
G75*
G02*
X129094000Y-89349250I0J243750D01*
G01*
X129094000Y-88861750D01*
G75*
G02*
X129337750Y-88618000I243750J0D01*
G01*
G37*
G36*
G01*
X129337750Y-90493000D02*
X130250250Y-90493000D01*
G75*
G02*
X130494000Y-90736750I0J-243750D01*
G01*
X130494000Y-91224250D01*
G75*
G02*
X130250250Y-91468000I-243750J0D01*
G01*
X129337750Y-91468000D01*
G75*
G02*
X129094000Y-91224250I0J243750D01*
G01*
X129094000Y-90736750D01*
G75*
G02*
X129337750Y-90493000I243750J0D01*
G01*
G37*
%TD*%
%TO.C,D2*%
G36*
G01*
X130250250Y-84767000D02*
X129337750Y-84767000D01*
G75*
G02*
X129094000Y-84523250I0J243750D01*
G01*
X129094000Y-84035750D01*
G75*
G02*
X129337750Y-83792000I243750J0D01*
G01*
X130250250Y-83792000D01*
G75*
G02*
X130494000Y-84035750I0J-243750D01*
G01*
X130494000Y-84523250D01*
G75*
G02*
X130250250Y-84767000I-243750J0D01*
G01*
G37*
G36*
G01*
X130250250Y-86642000D02*
X129337750Y-86642000D01*
G75*
G02*
X129094000Y-86398250I0J243750D01*
G01*
X129094000Y-85910750D01*
G75*
G02*
X129337750Y-85667000I243750J0D01*
G01*
X130250250Y-85667000D01*
G75*
G02*
X130494000Y-85910750I0J-243750D01*
G01*
X130494000Y-86398250D01*
G75*
G02*
X130250250Y-86642000I-243750J0D01*
G01*
G37*
%TD*%
%TO.C,R1*%
G36*
G01*
X137743250Y-89593000D02*
X136830750Y-89593000D01*
G75*
G02*
X136587000Y-89349250I0J243750D01*
G01*
X136587000Y-88861750D01*
G75*
G02*
X136830750Y-88618000I243750J0D01*
G01*
X137743250Y-88618000D01*
G75*
G02*
X137987000Y-88861750I0J-243750D01*
G01*
X137987000Y-89349250D01*
G75*
G02*
X137743250Y-89593000I-243750J0D01*
G01*
G37*
G36*
G01*
X137743250Y-91468000D02*
X136830750Y-91468000D01*
G75*
G02*
X136587000Y-91224250I0J243750D01*
G01*
X136587000Y-90736750D01*
G75*
G02*
X136830750Y-90493000I243750J0D01*
G01*
X137743250Y-90493000D01*
G75*
G02*
X137987000Y-90736750I0J-243750D01*
G01*
X137987000Y-91224250D01*
G75*
G02*
X137743250Y-91468000I-243750J0D01*
G01*
G37*
%TD*%
%TO.C,R2*%
G36*
G01*
X140029250Y-91468000D02*
X139116750Y-91468000D01*
G75*
G02*
X138873000Y-91224250I0J243750D01*
G01*
X138873000Y-90736750D01*
G75*
G02*
X139116750Y-90493000I243750J0D01*
G01*
X140029250Y-90493000D01*
G75*
G02*
X140273000Y-90736750I0J-243750D01*
G01*
X140273000Y-91224250D01*
G75*
G02*
X140029250Y-91468000I-243750J0D01*
G01*
G37*
G36*
G01*
X140029250Y-89593000D02*
X139116750Y-89593000D01*
G75*
G02*
X138873000Y-89349250I0J243750D01*
G01*
X138873000Y-88861750D01*
G75*
G02*
X139116750Y-88618000I243750J0D01*
G01*
X140029250Y-88618000D01*
G75*
G02*
X140273000Y-88861750I0J-243750D01*
G01*
X140273000Y-89349250D01*
G75*
G02*
X140029250Y-89593000I-243750J0D01*
G01*
G37*
%TD*%
%TO.C,R3*%
G36*
G01*
X143561750Y-94557000D02*
X144474250Y-94557000D01*
G75*
G02*
X144718000Y-94800750I0J-243750D01*
G01*
X144718000Y-95288250D01*
G75*
G02*
X144474250Y-95532000I-243750J0D01*
G01*
X143561750Y-95532000D01*
G75*
G02*
X143318000Y-95288250I0J243750D01*
G01*
X143318000Y-94800750D01*
G75*
G02*
X143561750Y-94557000I243750J0D01*
G01*
G37*
G36*
G01*
X143561750Y-92682000D02*
X144474250Y-92682000D01*
G75*
G02*
X144718000Y-92925750I0J-243750D01*
G01*
X144718000Y-93413250D01*
G75*
G02*
X144474250Y-93657000I-243750J0D01*
G01*
X143561750Y-93657000D01*
G75*
G02*
X143318000Y-93413250I0J243750D01*
G01*
X143318000Y-92925750D01*
G75*
G02*
X143561750Y-92682000I243750J0D01*
G01*
G37*
%TD*%
%TO.C,R4*%
G36*
G01*
X141275750Y-92682000D02*
X142188250Y-92682000D01*
G75*
G02*
X142432000Y-92925750I0J-243750D01*
G01*
X142432000Y-93413250D01*
G75*
G02*
X142188250Y-93657000I-243750J0D01*
G01*
X141275750Y-93657000D01*
G75*
G02*
X141032000Y-93413250I0J243750D01*
G01*
X141032000Y-92925750D01*
G75*
G02*
X141275750Y-92682000I243750J0D01*
G01*
G37*
G36*
G01*
X141275750Y-94557000D02*
X142188250Y-94557000D01*
G75*
G02*
X142432000Y-94800750I0J-243750D01*
G01*
X142432000Y-95288250D01*
G75*
G02*
X142188250Y-95532000I-243750J0D01*
G01*
X141275750Y-95532000D01*
G75*
G02*
X141032000Y-95288250I0J243750D01*
G01*
X141032000Y-94800750D01*
G75*
G02*
X141275750Y-94557000I243750J0D01*
G01*
G37*
%TD*%
%TO.C,C3*%
G36*
G01*
X153974200Y-85189000D02*
X155143800Y-85189000D01*
G75*
G02*
X155409000Y-85454200I0J-265200D01*
G01*
X155409000Y-88523800D01*
G75*
G02*
X155143800Y-88789000I-265200J0D01*
G01*
X153974200Y-88789000D01*
G75*
G02*
X153709000Y-88523800I0J265200D01*
G01*
X153709000Y-85454200D01*
G75*
G02*
X153974200Y-85189000I265200J0D01*
G01*
G37*
G36*
G01*
X153974200Y-90789000D02*
X155143800Y-90789000D01*
G75*
G02*
X155409000Y-91054200I0J-265200D01*
G01*
X155409000Y-94123800D01*
G75*
G02*
X155143800Y-94389000I-265200J0D01*
G01*
X153974200Y-94389000D01*
G75*
G02*
X153709000Y-94123800I0J265200D01*
G01*
X153709000Y-91054200D01*
G75*
G02*
X153974200Y-90789000I265200J0D01*
G01*
G37*
%TD*%
%TO.C,R7*%
G36*
G01*
X162913000Y-83514250D02*
X162913000Y-82601750D01*
G75*
G02*
X163156750Y-82358000I243750J0D01*
G01*
X163644250Y-82358000D01*
G75*
G02*
X163888000Y-82601750I0J-243750D01*
G01*
X163888000Y-83514250D01*
G75*
G02*
X163644250Y-83758000I-243750J0D01*
G01*
X163156750Y-83758000D01*
G75*
G02*
X162913000Y-83514250I0J243750D01*
G01*
G37*
G36*
G01*
X164788000Y-83514250D02*
X164788000Y-82601750D01*
G75*
G02*
X165031750Y-82358000I243750J0D01*
G01*
X165519250Y-82358000D01*
G75*
G02*
X165763000Y-82601750I0J-243750D01*
G01*
X165763000Y-83514250D01*
G75*
G02*
X165519250Y-83758000I-243750J0D01*
G01*
X165031750Y-83758000D01*
G75*
G02*
X164788000Y-83514250I0J243750D01*
G01*
G37*
%TD*%
%TO.C,U2*%
G36*
G01*
X164247000Y-87041000D02*
X164397000Y-87041000D01*
G75*
G02*
X164472000Y-87116000I0J-75000D01*
G01*
X164472000Y-88416000D01*
G75*
G02*
X164397000Y-88491000I-75000J0D01*
G01*
X164247000Y-88491000D01*
G75*
G02*
X164172000Y-88416000I0J75000D01*
G01*
X164172000Y-87116000D01*
G75*
G02*
X164247000Y-87041000I75000J0D01*
G01*
G37*
G36*
G01*
X163747000Y-87041000D02*
X163897000Y-87041000D01*
G75*
G02*
X163972000Y-87116000I0J-75000D01*
G01*
X163972000Y-88416000D01*
G75*
G02*
X163897000Y-88491000I-75000J0D01*
G01*
X163747000Y-88491000D01*
G75*
G02*
X163672000Y-88416000I0J75000D01*
G01*
X163672000Y-87116000D01*
G75*
G02*
X163747000Y-87041000I75000J0D01*
G01*
G37*
G36*
G01*
X163247000Y-87041000D02*
X163397000Y-87041000D01*
G75*
G02*
X163472000Y-87116000I0J-75000D01*
G01*
X163472000Y-88416000D01*
G75*
G02*
X163397000Y-88491000I-75000J0D01*
G01*
X163247000Y-88491000D01*
G75*
G02*
X163172000Y-88416000I0J75000D01*
G01*
X163172000Y-87116000D01*
G75*
G02*
X163247000Y-87041000I75000J0D01*
G01*
G37*
G36*
G01*
X162747000Y-87041000D02*
X162897000Y-87041000D01*
G75*
G02*
X162972000Y-87116000I0J-75000D01*
G01*
X162972000Y-88416000D01*
G75*
G02*
X162897000Y-88491000I-75000J0D01*
G01*
X162747000Y-88491000D01*
G75*
G02*
X162672000Y-88416000I0J75000D01*
G01*
X162672000Y-87116000D01*
G75*
G02*
X162747000Y-87041000I75000J0D01*
G01*
G37*
G36*
G01*
X162247000Y-87041000D02*
X162397000Y-87041000D01*
G75*
G02*
X162472000Y-87116000I0J-75000D01*
G01*
X162472000Y-88416000D01*
G75*
G02*
X162397000Y-88491000I-75000J0D01*
G01*
X162247000Y-88491000D01*
G75*
G02*
X162172000Y-88416000I0J75000D01*
G01*
X162172000Y-87116000D01*
G75*
G02*
X162247000Y-87041000I75000J0D01*
G01*
G37*
G36*
G01*
X162247000Y-91341000D02*
X162397000Y-91341000D01*
G75*
G02*
X162472000Y-91416000I0J-75000D01*
G01*
X162472000Y-92716000D01*
G75*
G02*
X162397000Y-92791000I-75000J0D01*
G01*
X162247000Y-92791000D01*
G75*
G02*
X162172000Y-92716000I0J75000D01*
G01*
X162172000Y-91416000D01*
G75*
G02*
X162247000Y-91341000I75000J0D01*
G01*
G37*
G36*
G01*
X162747000Y-91341000D02*
X162897000Y-91341000D01*
G75*
G02*
X162972000Y-91416000I0J-75000D01*
G01*
X162972000Y-92716000D01*
G75*
G02*
X162897000Y-92791000I-75000J0D01*
G01*
X162747000Y-92791000D01*
G75*
G02*
X162672000Y-92716000I0J75000D01*
G01*
X162672000Y-91416000D01*
G75*
G02*
X162747000Y-91341000I75000J0D01*
G01*
G37*
G36*
G01*
X163247000Y-91341000D02*
X163397000Y-91341000D01*
G75*
G02*
X163472000Y-91416000I0J-75000D01*
G01*
X163472000Y-92716000D01*
G75*
G02*
X163397000Y-92791000I-75000J0D01*
G01*
X163247000Y-92791000D01*
G75*
G02*
X163172000Y-92716000I0J75000D01*
G01*
X163172000Y-91416000D01*
G75*
G02*
X163247000Y-91341000I75000J0D01*
G01*
G37*
G36*
G01*
X163747000Y-91341000D02*
X163897000Y-91341000D01*
G75*
G02*
X163972000Y-91416000I0J-75000D01*
G01*
X163972000Y-92716000D01*
G75*
G02*
X163897000Y-92791000I-75000J0D01*
G01*
X163747000Y-92791000D01*
G75*
G02*
X163672000Y-92716000I0J75000D01*
G01*
X163672000Y-91416000D01*
G75*
G02*
X163747000Y-91341000I75000J0D01*
G01*
G37*
G36*
G01*
X164247000Y-91341000D02*
X164397000Y-91341000D01*
G75*
G02*
X164472000Y-91416000I0J-75000D01*
G01*
X164472000Y-92716000D01*
G75*
G02*
X164397000Y-92791000I-75000J0D01*
G01*
X164247000Y-92791000D01*
G75*
G02*
X164172000Y-92716000I0J75000D01*
G01*
X164172000Y-91416000D01*
G75*
G02*
X164247000Y-91341000I75000J0D01*
G01*
G37*
G36*
G01*
X163572000Y-89146000D02*
X164012000Y-89146000D01*
G75*
G02*
X164187000Y-89321000I0J-175000D01*
G01*
X164187000Y-89671000D01*
G75*
G02*
X164012000Y-89846000I-175000J0D01*
G01*
X163572000Y-89846000D01*
G75*
G02*
X163397000Y-89671000I0J175000D01*
G01*
X163397000Y-89321000D01*
G75*
G02*
X163572000Y-89146000I175000J0D01*
G01*
G37*
G36*
G01*
X162632000Y-89146000D02*
X163072000Y-89146000D01*
G75*
G02*
X163247000Y-89321000I0J-175000D01*
G01*
X163247000Y-89671000D01*
G75*
G02*
X163072000Y-89846000I-175000J0D01*
G01*
X162632000Y-89846000D01*
G75*
G02*
X162457000Y-89671000I0J175000D01*
G01*
X162457000Y-89321000D01*
G75*
G02*
X162632000Y-89146000I175000J0D01*
G01*
G37*
G36*
G01*
X163572000Y-89986000D02*
X164012000Y-89986000D01*
G75*
G02*
X164187000Y-90161000I0J-175000D01*
G01*
X164187000Y-90511000D01*
G75*
G02*
X164012000Y-90686000I-175000J0D01*
G01*
X163572000Y-90686000D01*
G75*
G02*
X163397000Y-90511000I0J175000D01*
G01*
X163397000Y-90161000D01*
G75*
G02*
X163572000Y-89986000I175000J0D01*
G01*
G37*
G36*
G01*
X162632000Y-89986000D02*
X163072000Y-89986000D01*
G75*
G02*
X163247000Y-90161000I0J-175000D01*
G01*
X163247000Y-90511000D01*
G75*
G02*
X163072000Y-90686000I-175000J0D01*
G01*
X162632000Y-90686000D01*
G75*
G02*
X162457000Y-90511000I0J175000D01*
G01*
X162457000Y-90161000D01*
G75*
G02*
X162632000Y-89986000I175000J0D01*
G01*
G37*
%TD*%
M02*
