%TF.GenerationSoftware,KiCad,Pcbnew,(5.1.6-0-10_14)*%
%TF.CreationDate,2021-08-04T10:25:44-07:00*%
%TF.ProjectId,Motor_Tester_DRV8830_Wing,4d6f746f-725f-4546-9573-7465725f4452,v00*%
%TF.SameCoordinates,Original*%
%TF.FileFunction,Soldermask,Top*%
%TF.FilePolarity,Negative*%
%FSLAX46Y46*%
G04 Gerber Fmt 4.6, Leading zero omitted, Abs format (unit mm)*
G04 Created by KiCad (PCBNEW (5.1.6-0-10_14)) date 2021-08-04 10:25:44*
%MOMM*%
%LPD*%
G01*
G04 APERTURE LIST*
%ADD10C,1.801600*%
%ADD11C,2.601600*%
%ADD12C,3.101600*%
%ADD13R,2.501600X2.501600*%
%ADD14C,2.501600*%
%ADD15R,0.901600X1.001600*%
%ADD16R,1.981600X1.781600*%
G04 APERTURE END LIST*
D10*
%TO.C,M1*%
X133350000Y-97790000D03*
X135890000Y-97790000D03*
X138430000Y-97790000D03*
X140970000Y-97790000D03*
X143510000Y-97790000D03*
X146050000Y-97790000D03*
X148590000Y-97790000D03*
X151130000Y-97790000D03*
X153670000Y-97790000D03*
X156210000Y-97790000D03*
X158750000Y-97790000D03*
X161290000Y-97790000D03*
X163830000Y-97790000D03*
X166370000Y-97790000D03*
X168910000Y-97790000D03*
X171450000Y-97790000D03*
X143510000Y-77470000D03*
X146050000Y-77470000D03*
X148590000Y-77470000D03*
X151130000Y-77470000D03*
X153670000Y-77470000D03*
X156210000Y-77470000D03*
X158750000Y-77470000D03*
X161290000Y-77470000D03*
X163830000Y-77470000D03*
X166370000Y-77470000D03*
X168910000Y-77470000D03*
X171450000Y-77470000D03*
D11*
X175260000Y-78740000D03*
X175260000Y-96520000D03*
D12*
X129540000Y-96520000D03*
X129540000Y-78740000D03*
%TD*%
%TO.C,C5*%
G36*
G01*
X169391650Y-93042800D02*
X168428350Y-93042800D01*
G75*
G02*
X168159200Y-92773650I0J269150D01*
G01*
X168159200Y-92235350D01*
G75*
G02*
X168428350Y-91966200I269150J0D01*
G01*
X169391650Y-91966200D01*
G75*
G02*
X169660800Y-92235350I0J-269150D01*
G01*
X169660800Y-92773650D01*
G75*
G02*
X169391650Y-93042800I-269150J0D01*
G01*
G37*
G36*
G01*
X169391650Y-91167800D02*
X168428350Y-91167800D01*
G75*
G02*
X168159200Y-90898650I0J269150D01*
G01*
X168159200Y-90360350D01*
G75*
G02*
X168428350Y-90091200I269150J0D01*
G01*
X169391650Y-90091200D01*
G75*
G02*
X169660800Y-90360350I0J-269150D01*
G01*
X169660800Y-90898650D01*
G75*
G02*
X169391650Y-91167800I-269150J0D01*
G01*
G37*
%TD*%
%TO.C,C6*%
G36*
G01*
X168428350Y-84219200D02*
X169391650Y-84219200D01*
G75*
G02*
X169660800Y-84488350I0J-269150D01*
G01*
X169660800Y-85026650D01*
G75*
G02*
X169391650Y-85295800I-269150J0D01*
G01*
X168428350Y-85295800D01*
G75*
G02*
X168159200Y-85026650I0J269150D01*
G01*
X168159200Y-84488350D01*
G75*
G02*
X168428350Y-84219200I269150J0D01*
G01*
G37*
G36*
G01*
X168428350Y-82344200D02*
X169391650Y-82344200D01*
G75*
G02*
X169660800Y-82613350I0J-269150D01*
G01*
X169660800Y-83151650D01*
G75*
G02*
X169391650Y-83420800I-269150J0D01*
G01*
X168428350Y-83420800D01*
G75*
G02*
X168159200Y-83151650I0J269150D01*
G01*
X168159200Y-82613350D01*
G75*
G02*
X168428350Y-82344200I269150J0D01*
G01*
G37*
%TD*%
%TO.C,C7*%
G36*
G01*
X169391650Y-89232800D02*
X168428350Y-89232800D01*
G75*
G02*
X168159200Y-88963650I0J269150D01*
G01*
X168159200Y-88425350D01*
G75*
G02*
X168428350Y-88156200I269150J0D01*
G01*
X169391650Y-88156200D01*
G75*
G02*
X169660800Y-88425350I0J-269150D01*
G01*
X169660800Y-88963650D01*
G75*
G02*
X169391650Y-89232800I-269150J0D01*
G01*
G37*
G36*
G01*
X169391650Y-87357800D02*
X168428350Y-87357800D01*
G75*
G02*
X168159200Y-87088650I0J269150D01*
G01*
X168159200Y-86550350D01*
G75*
G02*
X168428350Y-86281200I269150J0D01*
G01*
X169391650Y-86281200D01*
G75*
G02*
X169660800Y-86550350I0J-269150D01*
G01*
X169660800Y-87088650D01*
G75*
G02*
X169391650Y-87357800I-269150J0D01*
G01*
G37*
%TD*%
%TO.C,C9*%
G36*
G01*
X140054650Y-95582800D02*
X139091350Y-95582800D01*
G75*
G02*
X138822200Y-95313650I0J269150D01*
G01*
X138822200Y-94775350D01*
G75*
G02*
X139091350Y-94506200I269150J0D01*
G01*
X140054650Y-94506200D01*
G75*
G02*
X140323800Y-94775350I0J-269150D01*
G01*
X140323800Y-95313650D01*
G75*
G02*
X140054650Y-95582800I-269150J0D01*
G01*
G37*
G36*
G01*
X140054650Y-93707800D02*
X139091350Y-93707800D01*
G75*
G02*
X138822200Y-93438650I0J269150D01*
G01*
X138822200Y-92900350D01*
G75*
G02*
X139091350Y-92631200I269150J0D01*
G01*
X140054650Y-92631200D01*
G75*
G02*
X140323800Y-92900350I0J-269150D01*
G01*
X140323800Y-93438650D01*
G75*
G02*
X140054650Y-93707800I-269150J0D01*
G01*
G37*
%TD*%
%TO.C,C10*%
G36*
G01*
X137768650Y-93707800D02*
X136805350Y-93707800D01*
G75*
G02*
X136536200Y-93438650I0J269150D01*
G01*
X136536200Y-92900350D01*
G75*
G02*
X136805350Y-92631200I269150J0D01*
G01*
X137768650Y-92631200D01*
G75*
G02*
X138037800Y-92900350I0J-269150D01*
G01*
X138037800Y-93438650D01*
G75*
G02*
X137768650Y-93707800I-269150J0D01*
G01*
G37*
G36*
G01*
X137768650Y-95582800D02*
X136805350Y-95582800D01*
G75*
G02*
X136536200Y-95313650I0J269150D01*
G01*
X136536200Y-94775350D01*
G75*
G02*
X136805350Y-94506200I269150J0D01*
G01*
X137768650Y-94506200D01*
G75*
G02*
X138037800Y-94775350I0J-269150D01*
G01*
X138037800Y-95313650D01*
G75*
G02*
X137768650Y-95582800I-269150J0D01*
G01*
G37*
%TD*%
D13*
%TO.C,J6*%
X173863000Y-91059000D03*
D14*
X173863000Y-87559000D03*
X173863000Y-84059000D03*
%TD*%
D15*
%TO.C,Q1*%
X142814000Y-85074000D03*
X144714000Y-85074000D03*
X143764000Y-83074000D03*
%TD*%
%TO.C,R5*%
G36*
G01*
X134646350Y-92631200D02*
X135609650Y-92631200D01*
G75*
G02*
X135878800Y-92900350I0J-269150D01*
G01*
X135878800Y-93438650D01*
G75*
G02*
X135609650Y-93707800I-269150J0D01*
G01*
X134646350Y-93707800D01*
G75*
G02*
X134377200Y-93438650I0J269150D01*
G01*
X134377200Y-92900350D01*
G75*
G02*
X134646350Y-92631200I269150J0D01*
G01*
G37*
G36*
G01*
X134646350Y-94506200D02*
X135609650Y-94506200D01*
G75*
G02*
X135878800Y-94775350I0J-269150D01*
G01*
X135878800Y-95313650D01*
G75*
G02*
X135609650Y-95582800I-269150J0D01*
G01*
X134646350Y-95582800D01*
G75*
G02*
X134377200Y-95313650I0J269150D01*
G01*
X134377200Y-94775350D01*
G75*
G02*
X134646350Y-94506200I269150J0D01*
G01*
G37*
%TD*%
%TO.C,R6*%
G36*
G01*
X134646350Y-84376200D02*
X135609650Y-84376200D01*
G75*
G02*
X135878800Y-84645350I0J-269150D01*
G01*
X135878800Y-85183650D01*
G75*
G02*
X135609650Y-85452800I-269150J0D01*
G01*
X134646350Y-85452800D01*
G75*
G02*
X134377200Y-85183650I0J269150D01*
G01*
X134377200Y-84645350D01*
G75*
G02*
X134646350Y-84376200I269150J0D01*
G01*
G37*
G36*
G01*
X134646350Y-86251200D02*
X135609650Y-86251200D01*
G75*
G02*
X135878800Y-86520350I0J-269150D01*
G01*
X135878800Y-87058650D01*
G75*
G02*
X135609650Y-87327800I-269150J0D01*
G01*
X134646350Y-87327800D01*
G75*
G02*
X134377200Y-87058650I0J269150D01*
G01*
X134377200Y-86520350D01*
G75*
G02*
X134646350Y-86251200I269150J0D01*
G01*
G37*
%TD*%
%TO.C,U1*%
G36*
G01*
X142272200Y-86877400D02*
X142272200Y-86626600D01*
G75*
G02*
X142397600Y-86501200I125400J0D01*
G01*
X143723400Y-86501200D01*
G75*
G02*
X143848800Y-86626600I0J-125400D01*
G01*
X143848800Y-86877400D01*
G75*
G02*
X143723400Y-87002800I-125400J0D01*
G01*
X142397600Y-87002800D01*
G75*
G02*
X142272200Y-86877400I0J125400D01*
G01*
G37*
G36*
G01*
X142272200Y-87527400D02*
X142272200Y-87276600D01*
G75*
G02*
X142397600Y-87151200I125400J0D01*
G01*
X143723400Y-87151200D01*
G75*
G02*
X143848800Y-87276600I0J-125400D01*
G01*
X143848800Y-87527400D01*
G75*
G02*
X143723400Y-87652800I-125400J0D01*
G01*
X142397600Y-87652800D01*
G75*
G02*
X142272200Y-87527400I0J125400D01*
G01*
G37*
G36*
G01*
X142272200Y-88177400D02*
X142272200Y-87926600D01*
G75*
G02*
X142397600Y-87801200I125400J0D01*
G01*
X143723400Y-87801200D01*
G75*
G02*
X143848800Y-87926600I0J-125400D01*
G01*
X143848800Y-88177400D01*
G75*
G02*
X143723400Y-88302800I-125400J0D01*
G01*
X142397600Y-88302800D01*
G75*
G02*
X142272200Y-88177400I0J125400D01*
G01*
G37*
G36*
G01*
X142272200Y-88827400D02*
X142272200Y-88576600D01*
G75*
G02*
X142397600Y-88451200I125400J0D01*
G01*
X143723400Y-88451200D01*
G75*
G02*
X143848800Y-88576600I0J-125400D01*
G01*
X143848800Y-88827400D01*
G75*
G02*
X143723400Y-88952800I-125400J0D01*
G01*
X142397600Y-88952800D01*
G75*
G02*
X142272200Y-88827400I0J125400D01*
G01*
G37*
G36*
G01*
X142272200Y-89477400D02*
X142272200Y-89226600D01*
G75*
G02*
X142397600Y-89101200I125400J0D01*
G01*
X143723400Y-89101200D01*
G75*
G02*
X143848800Y-89226600I0J-125400D01*
G01*
X143848800Y-89477400D01*
G75*
G02*
X143723400Y-89602800I-125400J0D01*
G01*
X142397600Y-89602800D01*
G75*
G02*
X142272200Y-89477400I0J125400D01*
G01*
G37*
G36*
G01*
X142272200Y-90127400D02*
X142272200Y-89876600D01*
G75*
G02*
X142397600Y-89751200I125400J0D01*
G01*
X143723400Y-89751200D01*
G75*
G02*
X143848800Y-89876600I0J-125400D01*
G01*
X143848800Y-90127400D01*
G75*
G02*
X143723400Y-90252800I-125400J0D01*
G01*
X142397600Y-90252800D01*
G75*
G02*
X142272200Y-90127400I0J125400D01*
G01*
G37*
G36*
G01*
X142272200Y-90777400D02*
X142272200Y-90526600D01*
G75*
G02*
X142397600Y-90401200I125400J0D01*
G01*
X143723400Y-90401200D01*
G75*
G02*
X143848800Y-90526600I0J-125400D01*
G01*
X143848800Y-90777400D01*
G75*
G02*
X143723400Y-90902800I-125400J0D01*
G01*
X142397600Y-90902800D01*
G75*
G02*
X142272200Y-90777400I0J125400D01*
G01*
G37*
G36*
G01*
X142272200Y-91427400D02*
X142272200Y-91176600D01*
G75*
G02*
X142397600Y-91051200I125400J0D01*
G01*
X143723400Y-91051200D01*
G75*
G02*
X143848800Y-91176600I0J-125400D01*
G01*
X143848800Y-91427400D01*
G75*
G02*
X143723400Y-91552800I-125400J0D01*
G01*
X142397600Y-91552800D01*
G75*
G02*
X142272200Y-91427400I0J125400D01*
G01*
G37*
G36*
G01*
X147997200Y-91427400D02*
X147997200Y-91176600D01*
G75*
G02*
X148122600Y-91051200I125400J0D01*
G01*
X149448400Y-91051200D01*
G75*
G02*
X149573800Y-91176600I0J-125400D01*
G01*
X149573800Y-91427400D01*
G75*
G02*
X149448400Y-91552800I-125400J0D01*
G01*
X148122600Y-91552800D01*
G75*
G02*
X147997200Y-91427400I0J125400D01*
G01*
G37*
G36*
G01*
X147997200Y-90777400D02*
X147997200Y-90526600D01*
G75*
G02*
X148122600Y-90401200I125400J0D01*
G01*
X149448400Y-90401200D01*
G75*
G02*
X149573800Y-90526600I0J-125400D01*
G01*
X149573800Y-90777400D01*
G75*
G02*
X149448400Y-90902800I-125400J0D01*
G01*
X148122600Y-90902800D01*
G75*
G02*
X147997200Y-90777400I0J125400D01*
G01*
G37*
G36*
G01*
X147997200Y-90127400D02*
X147997200Y-89876600D01*
G75*
G02*
X148122600Y-89751200I125400J0D01*
G01*
X149448400Y-89751200D01*
G75*
G02*
X149573800Y-89876600I0J-125400D01*
G01*
X149573800Y-90127400D01*
G75*
G02*
X149448400Y-90252800I-125400J0D01*
G01*
X148122600Y-90252800D01*
G75*
G02*
X147997200Y-90127400I0J125400D01*
G01*
G37*
G36*
G01*
X147997200Y-89477400D02*
X147997200Y-89226600D01*
G75*
G02*
X148122600Y-89101200I125400J0D01*
G01*
X149448400Y-89101200D01*
G75*
G02*
X149573800Y-89226600I0J-125400D01*
G01*
X149573800Y-89477400D01*
G75*
G02*
X149448400Y-89602800I-125400J0D01*
G01*
X148122600Y-89602800D01*
G75*
G02*
X147997200Y-89477400I0J125400D01*
G01*
G37*
G36*
G01*
X147997200Y-88827400D02*
X147997200Y-88576600D01*
G75*
G02*
X148122600Y-88451200I125400J0D01*
G01*
X149448400Y-88451200D01*
G75*
G02*
X149573800Y-88576600I0J-125400D01*
G01*
X149573800Y-88827400D01*
G75*
G02*
X149448400Y-88952800I-125400J0D01*
G01*
X148122600Y-88952800D01*
G75*
G02*
X147997200Y-88827400I0J125400D01*
G01*
G37*
G36*
G01*
X147997200Y-88177400D02*
X147997200Y-87926600D01*
G75*
G02*
X148122600Y-87801200I125400J0D01*
G01*
X149448400Y-87801200D01*
G75*
G02*
X149573800Y-87926600I0J-125400D01*
G01*
X149573800Y-88177400D01*
G75*
G02*
X149448400Y-88302800I-125400J0D01*
G01*
X148122600Y-88302800D01*
G75*
G02*
X147997200Y-88177400I0J125400D01*
G01*
G37*
G36*
G01*
X147997200Y-87527400D02*
X147997200Y-87276600D01*
G75*
G02*
X148122600Y-87151200I125400J0D01*
G01*
X149448400Y-87151200D01*
G75*
G02*
X149573800Y-87276600I0J-125400D01*
G01*
X149573800Y-87527400D01*
G75*
G02*
X149448400Y-87652800I-125400J0D01*
G01*
X148122600Y-87652800D01*
G75*
G02*
X147997200Y-87527400I0J125400D01*
G01*
G37*
G36*
G01*
X147997200Y-86877400D02*
X147997200Y-86626600D01*
G75*
G02*
X148122600Y-86501200I125400J0D01*
G01*
X149448400Y-86501200D01*
G75*
G02*
X149573800Y-86626600I0J-125400D01*
G01*
X149573800Y-86877400D01*
G75*
G02*
X149448400Y-87002800I-125400J0D01*
G01*
X148122600Y-87002800D01*
G75*
G02*
X147997200Y-86877400I0J125400D01*
G01*
G37*
%TD*%
%TO.C,C1*%
G36*
G01*
X137768650Y-87327800D02*
X136805350Y-87327800D01*
G75*
G02*
X136536200Y-87058650I0J269150D01*
G01*
X136536200Y-86520350D01*
G75*
G02*
X136805350Y-86251200I269150J0D01*
G01*
X137768650Y-86251200D01*
G75*
G02*
X138037800Y-86520350I0J-269150D01*
G01*
X138037800Y-87058650D01*
G75*
G02*
X137768650Y-87327800I-269150J0D01*
G01*
G37*
G36*
G01*
X137768650Y-85452800D02*
X136805350Y-85452800D01*
G75*
G02*
X136536200Y-85183650I0J269150D01*
G01*
X136536200Y-84645350D01*
G75*
G02*
X136805350Y-84376200I269150J0D01*
G01*
X137768650Y-84376200D01*
G75*
G02*
X138037800Y-84645350I0J-269150D01*
G01*
X138037800Y-85183650D01*
G75*
G02*
X137768650Y-85452800I-269150J0D01*
G01*
G37*
%TD*%
%TO.C,C2*%
G36*
G01*
X140054650Y-85452800D02*
X139091350Y-85452800D01*
G75*
G02*
X138822200Y-85183650I0J269150D01*
G01*
X138822200Y-84645350D01*
G75*
G02*
X139091350Y-84376200I269150J0D01*
G01*
X140054650Y-84376200D01*
G75*
G02*
X140323800Y-84645350I0J-269150D01*
G01*
X140323800Y-85183650D01*
G75*
G02*
X140054650Y-85452800I-269150J0D01*
G01*
G37*
G36*
G01*
X140054650Y-87327800D02*
X139091350Y-87327800D01*
G75*
G02*
X138822200Y-87058650I0J269150D01*
G01*
X138822200Y-86520350D01*
G75*
G02*
X139091350Y-86251200I269150J0D01*
G01*
X140054650Y-86251200D01*
G75*
G02*
X140323800Y-86520350I0J-269150D01*
G01*
X140323800Y-87058650D01*
G75*
G02*
X140054650Y-87327800I-269150J0D01*
G01*
G37*
%TD*%
%TO.C,C4*%
G36*
G01*
X146479200Y-85317650D02*
X146479200Y-84354350D01*
G75*
G02*
X146748350Y-84085200I269150J0D01*
G01*
X147286650Y-84085200D01*
G75*
G02*
X147555800Y-84354350I0J-269150D01*
G01*
X147555800Y-85317650D01*
G75*
G02*
X147286650Y-85586800I-269150J0D01*
G01*
X146748350Y-85586800D01*
G75*
G02*
X146479200Y-85317650I0J269150D01*
G01*
G37*
G36*
G01*
X148354200Y-85317650D02*
X148354200Y-84354350D01*
G75*
G02*
X148623350Y-84085200I269150J0D01*
G01*
X149161650Y-84085200D01*
G75*
G02*
X149430800Y-84354350I0J-269150D01*
G01*
X149430800Y-85317650D01*
G75*
G02*
X149161650Y-85586800I-269150J0D01*
G01*
X148623350Y-85586800D01*
G75*
G02*
X148354200Y-85317650I0J269150D01*
G01*
G37*
%TD*%
%TO.C,D1*%
G36*
G01*
X129312350Y-88567200D02*
X130275650Y-88567200D01*
G75*
G02*
X130544800Y-88836350I0J-269150D01*
G01*
X130544800Y-89374650D01*
G75*
G02*
X130275650Y-89643800I-269150J0D01*
G01*
X129312350Y-89643800D01*
G75*
G02*
X129043200Y-89374650I0J269150D01*
G01*
X129043200Y-88836350D01*
G75*
G02*
X129312350Y-88567200I269150J0D01*
G01*
G37*
G36*
G01*
X129312350Y-90442200D02*
X130275650Y-90442200D01*
G75*
G02*
X130544800Y-90711350I0J-269150D01*
G01*
X130544800Y-91249650D01*
G75*
G02*
X130275650Y-91518800I-269150J0D01*
G01*
X129312350Y-91518800D01*
G75*
G02*
X129043200Y-91249650I0J269150D01*
G01*
X129043200Y-90711350D01*
G75*
G02*
X129312350Y-90442200I269150J0D01*
G01*
G37*
%TD*%
%TO.C,D2*%
G36*
G01*
X130275650Y-84817800D02*
X129312350Y-84817800D01*
G75*
G02*
X129043200Y-84548650I0J269150D01*
G01*
X129043200Y-84010350D01*
G75*
G02*
X129312350Y-83741200I269150J0D01*
G01*
X130275650Y-83741200D01*
G75*
G02*
X130544800Y-84010350I0J-269150D01*
G01*
X130544800Y-84548650D01*
G75*
G02*
X130275650Y-84817800I-269150J0D01*
G01*
G37*
G36*
G01*
X130275650Y-86692800D02*
X129312350Y-86692800D01*
G75*
G02*
X129043200Y-86423650I0J269150D01*
G01*
X129043200Y-85885350D01*
G75*
G02*
X129312350Y-85616200I269150J0D01*
G01*
X130275650Y-85616200D01*
G75*
G02*
X130544800Y-85885350I0J-269150D01*
G01*
X130544800Y-86423650D01*
G75*
G02*
X130275650Y-86692800I-269150J0D01*
G01*
G37*
%TD*%
D13*
%TO.C,J2*%
X138430000Y-80010000D03*
D14*
X134930000Y-80010000D03*
%TD*%
%TO.C,R1*%
G36*
G01*
X137768650Y-89643800D02*
X136805350Y-89643800D01*
G75*
G02*
X136536200Y-89374650I0J269150D01*
G01*
X136536200Y-88836350D01*
G75*
G02*
X136805350Y-88567200I269150J0D01*
G01*
X137768650Y-88567200D01*
G75*
G02*
X138037800Y-88836350I0J-269150D01*
G01*
X138037800Y-89374650D01*
G75*
G02*
X137768650Y-89643800I-269150J0D01*
G01*
G37*
G36*
G01*
X137768650Y-91518800D02*
X136805350Y-91518800D01*
G75*
G02*
X136536200Y-91249650I0J269150D01*
G01*
X136536200Y-90711350D01*
G75*
G02*
X136805350Y-90442200I269150J0D01*
G01*
X137768650Y-90442200D01*
G75*
G02*
X138037800Y-90711350I0J-269150D01*
G01*
X138037800Y-91249650D01*
G75*
G02*
X137768650Y-91518800I-269150J0D01*
G01*
G37*
%TD*%
%TO.C,R2*%
G36*
G01*
X140054650Y-91518800D02*
X139091350Y-91518800D01*
G75*
G02*
X138822200Y-91249650I0J269150D01*
G01*
X138822200Y-90711350D01*
G75*
G02*
X139091350Y-90442200I269150J0D01*
G01*
X140054650Y-90442200D01*
G75*
G02*
X140323800Y-90711350I0J-269150D01*
G01*
X140323800Y-91249650D01*
G75*
G02*
X140054650Y-91518800I-269150J0D01*
G01*
G37*
G36*
G01*
X140054650Y-89643800D02*
X139091350Y-89643800D01*
G75*
G02*
X138822200Y-89374650I0J269150D01*
G01*
X138822200Y-88836350D01*
G75*
G02*
X139091350Y-88567200I269150J0D01*
G01*
X140054650Y-88567200D01*
G75*
G02*
X140323800Y-88836350I0J-269150D01*
G01*
X140323800Y-89374650D01*
G75*
G02*
X140054650Y-89643800I-269150J0D01*
G01*
G37*
%TD*%
%TO.C,R3*%
G36*
G01*
X143536350Y-94506200D02*
X144499650Y-94506200D01*
G75*
G02*
X144768800Y-94775350I0J-269150D01*
G01*
X144768800Y-95313650D01*
G75*
G02*
X144499650Y-95582800I-269150J0D01*
G01*
X143536350Y-95582800D01*
G75*
G02*
X143267200Y-95313650I0J269150D01*
G01*
X143267200Y-94775350D01*
G75*
G02*
X143536350Y-94506200I269150J0D01*
G01*
G37*
G36*
G01*
X143536350Y-92631200D02*
X144499650Y-92631200D01*
G75*
G02*
X144768800Y-92900350I0J-269150D01*
G01*
X144768800Y-93438650D01*
G75*
G02*
X144499650Y-93707800I-269150J0D01*
G01*
X143536350Y-93707800D01*
G75*
G02*
X143267200Y-93438650I0J269150D01*
G01*
X143267200Y-92900350D01*
G75*
G02*
X143536350Y-92631200I269150J0D01*
G01*
G37*
%TD*%
%TO.C,R4*%
G36*
G01*
X141250350Y-92631200D02*
X142213650Y-92631200D01*
G75*
G02*
X142482800Y-92900350I0J-269150D01*
G01*
X142482800Y-93438650D01*
G75*
G02*
X142213650Y-93707800I-269150J0D01*
G01*
X141250350Y-93707800D01*
G75*
G02*
X140981200Y-93438650I0J269150D01*
G01*
X140981200Y-92900350D01*
G75*
G02*
X141250350Y-92631200I269150J0D01*
G01*
G37*
G36*
G01*
X141250350Y-94506200D02*
X142213650Y-94506200D01*
G75*
G02*
X142482800Y-94775350I0J-269150D01*
G01*
X142482800Y-95313650D01*
G75*
G02*
X142213650Y-95582800I-269150J0D01*
G01*
X141250350Y-95582800D01*
G75*
G02*
X140981200Y-95313650I0J269150D01*
G01*
X140981200Y-94775350D01*
G75*
G02*
X141250350Y-94506200I269150J0D01*
G01*
G37*
%TD*%
%TO.C,C3*%
G36*
G01*
X153939249Y-85138200D02*
X155178751Y-85138200D01*
G75*
G02*
X155459800Y-85419249I0J-281049D01*
G01*
X155459800Y-88558751D01*
G75*
G02*
X155178751Y-88839800I-281049J0D01*
G01*
X153939249Y-88839800D01*
G75*
G02*
X153658200Y-88558751I0J281049D01*
G01*
X153658200Y-85419249D01*
G75*
G02*
X153939249Y-85138200I281049J0D01*
G01*
G37*
G36*
G01*
X153939249Y-90738200D02*
X155178751Y-90738200D01*
G75*
G02*
X155459800Y-91019249I0J-281049D01*
G01*
X155459800Y-94158751D01*
G75*
G02*
X155178751Y-94439800I-281049J0D01*
G01*
X153939249Y-94439800D01*
G75*
G02*
X153658200Y-94158751I0J281049D01*
G01*
X153658200Y-91019249D01*
G75*
G02*
X153939249Y-90738200I281049J0D01*
G01*
G37*
%TD*%
%TO.C,R7*%
G36*
G01*
X162862200Y-83539650D02*
X162862200Y-82576350D01*
G75*
G02*
X163131350Y-82307200I269150J0D01*
G01*
X163669650Y-82307200D01*
G75*
G02*
X163938800Y-82576350I0J-269150D01*
G01*
X163938800Y-83539650D01*
G75*
G02*
X163669650Y-83808800I-269150J0D01*
G01*
X163131350Y-83808800D01*
G75*
G02*
X162862200Y-83539650I0J269150D01*
G01*
G37*
G36*
G01*
X164737200Y-83539650D02*
X164737200Y-82576350D01*
G75*
G02*
X165006350Y-82307200I269150J0D01*
G01*
X165544650Y-82307200D01*
G75*
G02*
X165813800Y-82576350I0J-269150D01*
G01*
X165813800Y-83539650D01*
G75*
G02*
X165544650Y-83808800I-269150J0D01*
G01*
X165006350Y-83808800D01*
G75*
G02*
X164737200Y-83539650I0J269150D01*
G01*
G37*
%TD*%
%TO.C,U2*%
G36*
G01*
X164221600Y-86990200D02*
X164422400Y-86990200D01*
G75*
G02*
X164522800Y-87090600I0J-100400D01*
G01*
X164522800Y-88441400D01*
G75*
G02*
X164422400Y-88541800I-100400J0D01*
G01*
X164221600Y-88541800D01*
G75*
G02*
X164121200Y-88441400I0J100400D01*
G01*
X164121200Y-87090600D01*
G75*
G02*
X164221600Y-86990200I100400J0D01*
G01*
G37*
G36*
G01*
X163721600Y-86990200D02*
X163922400Y-86990200D01*
G75*
G02*
X164022800Y-87090600I0J-100400D01*
G01*
X164022800Y-88441400D01*
G75*
G02*
X163922400Y-88541800I-100400J0D01*
G01*
X163721600Y-88541800D01*
G75*
G02*
X163621200Y-88441400I0J100400D01*
G01*
X163621200Y-87090600D01*
G75*
G02*
X163721600Y-86990200I100400J0D01*
G01*
G37*
G36*
G01*
X163221600Y-86990200D02*
X163422400Y-86990200D01*
G75*
G02*
X163522800Y-87090600I0J-100400D01*
G01*
X163522800Y-88441400D01*
G75*
G02*
X163422400Y-88541800I-100400J0D01*
G01*
X163221600Y-88541800D01*
G75*
G02*
X163121200Y-88441400I0J100400D01*
G01*
X163121200Y-87090600D01*
G75*
G02*
X163221600Y-86990200I100400J0D01*
G01*
G37*
G36*
G01*
X162721600Y-86990200D02*
X162922400Y-86990200D01*
G75*
G02*
X163022800Y-87090600I0J-100400D01*
G01*
X163022800Y-88441400D01*
G75*
G02*
X162922400Y-88541800I-100400J0D01*
G01*
X162721600Y-88541800D01*
G75*
G02*
X162621200Y-88441400I0J100400D01*
G01*
X162621200Y-87090600D01*
G75*
G02*
X162721600Y-86990200I100400J0D01*
G01*
G37*
G36*
G01*
X162221600Y-86990200D02*
X162422400Y-86990200D01*
G75*
G02*
X162522800Y-87090600I0J-100400D01*
G01*
X162522800Y-88441400D01*
G75*
G02*
X162422400Y-88541800I-100400J0D01*
G01*
X162221600Y-88541800D01*
G75*
G02*
X162121200Y-88441400I0J100400D01*
G01*
X162121200Y-87090600D01*
G75*
G02*
X162221600Y-86990200I100400J0D01*
G01*
G37*
G36*
G01*
X162221600Y-91290200D02*
X162422400Y-91290200D01*
G75*
G02*
X162522800Y-91390600I0J-100400D01*
G01*
X162522800Y-92741400D01*
G75*
G02*
X162422400Y-92841800I-100400J0D01*
G01*
X162221600Y-92841800D01*
G75*
G02*
X162121200Y-92741400I0J100400D01*
G01*
X162121200Y-91390600D01*
G75*
G02*
X162221600Y-91290200I100400J0D01*
G01*
G37*
G36*
G01*
X162721600Y-91290200D02*
X162922400Y-91290200D01*
G75*
G02*
X163022800Y-91390600I0J-100400D01*
G01*
X163022800Y-92741400D01*
G75*
G02*
X162922400Y-92841800I-100400J0D01*
G01*
X162721600Y-92841800D01*
G75*
G02*
X162621200Y-92741400I0J100400D01*
G01*
X162621200Y-91390600D01*
G75*
G02*
X162721600Y-91290200I100400J0D01*
G01*
G37*
G36*
G01*
X163221600Y-91290200D02*
X163422400Y-91290200D01*
G75*
G02*
X163522800Y-91390600I0J-100400D01*
G01*
X163522800Y-92741400D01*
G75*
G02*
X163422400Y-92841800I-100400J0D01*
G01*
X163221600Y-92841800D01*
G75*
G02*
X163121200Y-92741400I0J100400D01*
G01*
X163121200Y-91390600D01*
G75*
G02*
X163221600Y-91290200I100400J0D01*
G01*
G37*
G36*
G01*
X163721600Y-91290200D02*
X163922400Y-91290200D01*
G75*
G02*
X164022800Y-91390600I0J-100400D01*
G01*
X164022800Y-92741400D01*
G75*
G02*
X163922400Y-92841800I-100400J0D01*
G01*
X163721600Y-92841800D01*
G75*
G02*
X163621200Y-92741400I0J100400D01*
G01*
X163621200Y-91390600D01*
G75*
G02*
X163721600Y-91290200I100400J0D01*
G01*
G37*
G36*
G01*
X164221600Y-91290200D02*
X164422400Y-91290200D01*
G75*
G02*
X164522800Y-91390600I0J-100400D01*
G01*
X164522800Y-92741400D01*
G75*
G02*
X164422400Y-92841800I-100400J0D01*
G01*
X164221600Y-92841800D01*
G75*
G02*
X164121200Y-92741400I0J100400D01*
G01*
X164121200Y-91390600D01*
G75*
G02*
X164221600Y-91290200I100400J0D01*
G01*
G37*
D16*
X163322000Y-89916000D03*
%TD*%
M02*
